<?xml version="1.0" encoding="UTF-8"?>
<svg id="Layer_2" data-name="Layer 2" xmlns="http://www.w3.org/2000/svg" viewBox="0 0 185.89 49.51">
  <defs>
    <style>
      .cls-1 {
        fill: #95b0b2;
      }

      .cls-1, .cls-2 {
        stroke-width: 0px;
      }

      .cls-2 {
        fill: #8accce;
      }
    </style>
  </defs>
  <g id="Layer_1-2" data-name="Layer 1">
    <g>
      <path class="cls-1" d="M78.99,4.18c-1.77-1.58-4.24-2.6-7.24-2.6-5.31,0-9.32,3.25-9.32,7.25s4.04,7.22,9.32,7.22c1.66,0,3.2-.32,4.55-.88l1,1.35c-1.58.7-3.5,1.11-5.55,1.11-6.43,0-11.44-3.83-11.44-8.8S65.36,0,71.75,0c3.39,0,6.7,1.11,8.94,3.3l-1.69.88Z"/>
      <path class="cls-1" d="M78.07,17.48L90.36.12h2.08l5.16,17.4h-2.12l-1.46-4.94h-10.21l-3.51,4.94-2.23-.03ZM84.81,11.05h8.74l-2.58-8.71-6.16,8.71Z"/>
      <path class="cls-1" d="M100.14,17.51V.12h2.08v15.85h7.63v1.55h-9.71Z"/>
      <path class="cls-1" d="M125.68,15.23v-3.89h-4.74v-1.52h6.86v6.29c-2.2,1.11-4.7,1.52-7.05,1.52-6.43,0-11.44-3.83-11.44-8.8S114.36,0,120.75,0c4.2,0,7.9,1.7,9.9,4.42l-1.81.73c-1.62-1.93-4.31-3.57-8.09-3.57-5.31,0-9.32,3.25-9.32,7.25s4.04,7.22,9.32,7.22c1.85,0,3.43-.23,4.93-.82Z"/>
      <path class="cls-1" d="M129.03,17.48L141.32.12h2.08l5.16,17.4h-2.12l-1.46-4.94h-10.21l-3.51,4.94-2.23-.03ZM135.77,11.05h8.74l-2.58-8.71-6.16,8.71Z"/>
      <path class="cls-1" d="M151.11.12h9.44c3.89,0,6.51,2.13,6.51,4.74,0,2.46-2.73,4.71-6.7,4.71l4.47,7.95h-2.27l-4.51-7.95h-4.85v7.95h-2.08V.12ZM153.19,1.64v6.4h7.16c2.7,0,4.58-1.46,4.58-3.19s-1.77-3.22-4.35-3.22h-7.4Z"/>
      <path class="cls-1" d="M175.87,17.51h-2.08l1.82-4.17L167.17.12h2.23l7.42,11.57L183.31.12h2.58"/>
    </g>
    <g>
      <g>
        <path class="cls-2" d="M60.67,22.73c12.56-3.52,29.05,8.25,10.67,14.37,8.71,17.78,2.2,14.44-2.67,0,0,0-5.6,0-5.6,0v12.1c-5.2,3.67-1.22-25.75-2.4-26.46ZM63.07,25.05v9.74c18.1,2.85,18.03-12.66,0-9.74Z"/>
        <path class="cls-2" d="M82.51,49.2v-26.46c1.11,1.02,18.46-2.43,15.61,2.31-10.1.74-14.81-3.99-13.21,9.74,18.29-1.14,18.22,3.45,0,2.31-.59,11.15-.48,10.08,10.19,9.78,2.58,4.53-11.37,1.46-12.59,2.31Z"/>
        <path class="cls-2" d="M153.81,49.2v-26.46c5.19-3.68,1.23,25.75,2.4,26.46,0,0-2.4,0-2.4,0Z"/>
        <path class="cls-2" d="M172.98,22.55c17.3-.29,17.11,27.2,0,26.82-17.21.42-17.15-27.12,0-26.82ZM172.98,46.97c14.06.24,14.12-22.25,0-22.02-14.02-.25-14.02,22.25,0,22.02Z"/>
        <path class="cls-2" d="M115.19,37.52s-.03,0-.05,0c-.14.03-.27.08-.39.15-.25.12-.45.29-.57.5-.45.59-.64,1.49-.42,2.42.33,1.44,1.5,2.39,2.6,2.14,1.09-.25,1.71-1.6,1.39-3.02,2.43.29,2.26,1.89,2.03,6.02-27,6.16-17.89-33.07,5.74-16.46-6.12-11.78-25.16-6.66-24.64,6.72-.9,15.31,26.08,19.7,21.35,1.51-1.03.42-5.03-.52-7.04.03Z"/>
        <path class="cls-2" d="M140.78,37.52s-.04,0-.07.01c-.17.04-.33.11-.47.2-.2.11-.36.25-.47.42-.47.59-.66,1.5-.44,2.45.33,1.44,1.5,2.39,2.6,2.14,1.09-.25,1.71-1.6,1.39-3.03,2.44.29,2.27,1.89,2.04,6.02-27,6.16-17.89-33.07,5.74-16.46-6.12-11.78-25.16-6.66-24.64,6.72-.9,15.31,26.08,19.7,21.35,1.51-1.03.42-5.02-.51-7.03.02Z"/>
      </g>
      <g>
        <g>
          <path class="cls-2" d="M47.78,49.19c-.01-.28.17-.5.25-.75.05-.16.05-.34.03-.51-.02-.19-.07-.37-.12-.55-.07-.29-.16-.57-.24-.85-.05-.19-.08-.4-.14-.59-.05-.16-.14-.3-.21-.45,0-.02-.02-.03-.04-.04-.29-.09-.47-.31-.69-.5-.35-.29-.67-.6-1.01-.9-.13-.11-.27-.2-.4-.3-.08-.06-.14-.13-.22-.2-.13-.11-.26-.21-.39-.32-.22-.19-.44-.39-.65-.59-.13-.12-.26-.23-.38-.35-.28-.28-.54-.57-.83-.84-.21-.2-.38-.45-.64-.61-.14-.09-.23-.24-.34-.36-.25-.26-.5-.52-.74-.79-.19-.21-.38-.43-.57-.65-.03-.04-.09-.06-.13-.1-.18-.18-.35-.37-.53-.55-.25-.26-.5-.53-.75-.79-.12-.13-.25-.25-.37-.38-.02-.02-.03-.04-.04-.05-.24-.27-.48-.53-.71-.8-.13-.16-.25-.33-.37-.49-.12-.15-.24-.3-.35-.45-.09-.12-.17-.25-.27-.37-.05-.06-.11-.1-.16-.17-.14-.2-.28-.41-.42-.62-.14-.19-.29-.38-.43-.57-.07-.1-.12-.22-.19-.32-.13-.2-.25-.4-.39-.59-.12-.17-.26-.32-.38-.49-.08-.13-.13-.28-.2-.41-.05-.09-.14-.17-.16-.27-.06-.25-.26-.38-.44-.54-.12-.1-.23-.22-.31-.35-.08-.14-.12-.3-.19-.45-.04-.08-.09-.17-.17-.21-.06-.03-.16,0-.23.03-.09.05-.07.15-.05.24,0,.04,0,.09,0,.13-.03.12-.06.24-.1.35-.03.08-.08.15-.11.22-.02.06,0,.14-.03.2-.03.08-.06.17-.12.24-.18.21-.3.45-.39.71-.04.12-.12.24-.18.35-.07.14-.13.29-.21.42-.11.18-.24.34-.34.52-.05.09-.09.18-.12.28-.1.29-.18.58-.3.86-.17.4-.4.76-.64,1.12-.16.24-.29.51-.42.77-.05.11-.04.25-.1.35-.09.14-.06.3-.16.44-.12.18-.18.4-.26.6,0,.02,0,.05-.02.06-.15.14-.08.3.02.4.24.26.46.54.78.72.1.06.24.11.23.28,0,.02.04.05.07.08.15.17.32.34.46.52.22.28.45.54.71.79.25.24.55.46.72.75.2.35.5.59.78.83.35.29.66.62,1.03.89.06.04.1.1.15.15.25.27.49.53.74.8,0,0,.02.01.02.02.12.41.44.68.68,1.01.09.12.2.24.32.34.19.16.31.36.47.53.32.36.66.69,1.08.95.14.09.28.19.42.28.06.04.14.05.2.09.13.09.17.29.11.47-.02.05-.03.1-.03.15-.01.32-.02.64-.03.96,0,.12-.08.18-.2.18-.33,0-.67,0-1,0-.82,0-1.64,0-2.46,0-.07,0-.14,0-.2,0v-.04c.1-.05.21-.11.32-.16.27-.13.56-.23.81-.38.31-.18.58-.42.89-.6.18-.11.23-.24.24-.42,0-.02,0-.05,0-.07-.09-.19-.17-.39-.27-.57-.04-.07-.09-.15-.15-.18-.17-.1-.25-.26-.35-.41-.03-.04-.07-.08-.11-.12-.27-.25-.5-.53-.73-.82-.18-.23-.41-.42-.63-.62-.24-.22-.51-.42-.75-.64-.17-.16-.3-.35-.45-.52-.07-.08-.15-.17-.23-.25-.09-.09-.19-.18-.29-.27-.1-.09-.21-.17-.3-.26-.14-.14-.25-.31-.39-.45-.19-.19-.39-.37-.61-.54-.26-.2-.48-.45-.71-.68-.21-.21-.4-.44-.6-.66-.13-.14-.26-.28-.4-.41-.09-.08-.21-.14-.3-.22-.15-.13-.3-.26-.45-.39-.18-.15-.31-.1-.37.12-.01.05-.08.1-.1.15-.09.2-.17.4-.26.61-.04.1-.08.2-.12.29-.15.3-.21.64-.4.93-.11.16-.13.37-.2.56-.06.16-.15.3-.22.46-.04.08-.05.18-.08.27-.07.19-.15.38-.24.56-.13.29-.25.59-.41.86-.27.46-.47.94-.68,1.43-.11.25-.26.48-.38.73-.1.22-.19.45-.28.68-.09.22-.12.45-.29.64-.06.06-.05.19-.05.29,0,.22.04.43.16.62.05.08.1.17.13.26.03.08.03.16.04.21-.16.02-.28.04-.4.04-.15,0-.3-.04-.45-.04-.73,0-1.47,0-2.2-.01-.17,0-.22-.08-.13-.22.14-.22.27-.45.52-.57.09-.04.16-.12.24-.18.1-.07.22-.14.32-.22.09-.07.18-.14.25-.23.11-.14.15-.13.32-.1.18.04.37.03.55.03.06,0,.14-.03.19,0,.14.06.23-.03.3-.1.12-.11.22-.25.32-.38.05-.07.06-.13-.05-.19-.15-.08-.29-.12-.46-.11-.22,0-.44-.01-.65-.11-.17-.07-.21-.06-.29.11-.07.17-.13.34-.19.51-.01.03-.03.07-.05.12-.08-.11-.13-.18-.08-.31.15-.38.28-.77.42-1.15.03-.08.07-.16.11-.25.14-.32.29-.63.42-.95.17-.41.32-.83.49-1.24.1-.24.24-.47.36-.69.08-.15.2-.28.26-.43.18-.45.48-.83.72-1.24.32-.57.68-1.12,1.01-1.68.21-.37.4-.75.61-1.12.07-.12-.09-.36-.22-.41-.14-.05-.2-.15-.28-.26-.11-.16-.29-.27-.43-.41-.09-.08-.16-.18-.25-.26-.08-.08-.19-.13-.27-.21-.1-.1-.2-.21-.28-.32-.14-.2-.28-.39-.45-.56-.18-.17-.36-.34-.54-.52-.16-.16-.32-.33-.47-.5-.05-.06-.09-.13-.14-.19-.05-.06-.11-.13-.18-.18-.22-.16-.46-.3-.66-.49-.22-.2-.4-.44-.6-.65-.17-.18-.36-.34-.54-.52-.2-.2-.39-.42-.59-.63-.1-.11-.21-.22-.32-.33-.19-.18-.38-.37-.59-.54-.25-.2-.51-.38-.76-.59-.23-.19-.44-.4-.66-.6-.07-.07-.16-.12-.23-.19-.11-.09-.21-.19-.31-.29-.08-.09-.14-.09-.17.03-.06.21-.11.42-.17.65-.23,0-.37.18-.53.34-.15.15-.28.32-.43.47-.19.2-.38.4-.59.57-.17.14-.37.24-.56.36-.07.04-.13.1-.2.15-.27.21-.55.42-.82.63-.1.08-.17.19-.27.27-.11.09-.24.16-.36.24-.09.07-.17.16-.26.24-.13.1-.26.19-.4.28-.3.22-.6.43-.89.65-.32.23-.64.46-.95.7-.17.13-.34.27-.49.42-.22.21-.43.43-.65.64-.21.21-.41.44-.65.61-.38.26-.74.55-1.1.83-.09.07-.19.12-.25.2-.24.28-.5.54-.61.91-.03.1-.11.2-.2.26-.17.11-.22.3-.32.44-.08.11-.16.23-.24.34-.07.1-.14.21-.21.31-.05.07-.1.14-.17.19-.22.19-.44.38-.65.57-.1.09-.17.2-.26.3-.07.08-.16.14-.24.2-.02.02-.05.04-.06.06-.11.31-.34.54-.54.78-.24.29-.52.56-.77.84-.26.29-.51.58-.77.88-.1.12-.21.24-.32.35-.3.29-.62.56-.91.86-.14.14-.19.34-.19.54,0,.3.03.6.04.9,0,.15-.04.3-.04.45,0,.1.02.21.07.3.11.2.2.39.05.6-.02.03-.08.05-.13.06-.04,0-.09-.01-.12,0-.23.07-.46.06-.7,0-.32-.07-.66-.11-.99-.14-.12-.01-.25,0-.37.03-.21.05-.4-.02-.6-.05-.03,0-.08-.15-.05-.19.12-.17.24-.35.39-.5.16-.17.37-.32.4-.56.03-.19,0-.4-.02-.59-.01-.22-.02-.44.05-.66.07-.23.12-.46.21-.68.05-.13.17-.23.26-.35.2-.27.41-.54.61-.81.11-.15.23-.29.34-.44.13-.17.26-.33.4-.5.12-.15.25-.3.36-.47.11-.17.21-.35.31-.53.01-.02.02-.06.04-.07.24-.19.35-.46.51-.7.12-.17.29-.31.43-.47.18-.22.35-.44.53-.66.08-.1.16-.2.24-.29.18-.21.36-.43.55-.64.16-.17.34-.32.51-.48.18-.18.34-.38.53-.56.22-.2.4-.44.65-.62.24-.17.47-.33.73-.47.19-.11.39-.23.52-.4.12-.17.32-.21.45-.35.02-.03.06-.04.09-.07.15-.16.33-.28.53-.37.02,0,.03-.02.04-.04.22-.33.59-.48.87-.74.07-.06.17-.09.24-.15.2-.18.38-.37.59-.54.15-.13.32-.25.5-.33.2-.09.36-.19.49-.36.06-.09.17-.15.25-.22.03-.03.08-.05.1-.08.13-.22.39-.26.59-.38.02,0,.04,0,.05-.02.33-.28.67-.56.98-.86.16-.15.31-.33.42-.52.22-.36.53-.64.83-.93.05-.05.1-.12.14-.18.09-.11.18-.23.27-.34.11-.13.21-.27.31-.41.04-.06.07-.11-.03-.16-.13-.07-.26-.16-.37-.25-.08-.07-.14-.17-.22-.24-.06-.06-.14-.1-.21-.15-.1-.07-.15-.14-.14-.28.03-.23,0-.46,0-.69,0-.21-.02-.42-.01-.63,0-.12.06-.24.1-.35.03-.09.08-.18.11-.27.05-.21.29-.29.38-.48.04-.08.08-.17.15-.23.13-.13.28-.24.43-.35.22-.17.44-.34.66-.51.07-.05.14-.09.22-.12.24-.09.47-.19.71-.27.08-.03.18-.01.26-.02.22-.03.43-.08.65-.11.23-.03.47-.05.7-.09.18-.03.35-.1.53-.12.12-.02.25,0,.4,0-.04-.12-.08-.22-.11-.33-.06-.22-.1-.44-.15-.66-.04-.17-.07-.35-.11-.52-.06-.23-.12-.45-.18-.67-.09-.31-.19-.62-.28-.94-.03-.1-.06-.2-.09-.29-.1-.37-.21-.74-.3-1.11-.06-.24-.1-.49-.16-.73-.05-.22-.12-.45-.17-.67-.07-.3-.14-.6-.19-.9-.09-.44-.16-.88-.25-1.32-.02-.11-.08-.22-.14-.33-.03-.06-.09-.12-.18-.06-.02.02-.06.03-.09.02-.18-.07-.31.04-.45.12-.22.12-.41.28-.58.47-.01.01-.03.02-.04.04-.14.27-.41.41-.63.59-.05.04-.07.1-.13.13-.25.13-.51.25-.76.38-.15.08-.3.18-.43.29-.18.14-.4.2-.62.26-.12.03-.23.12-.34.18-.11.06-.21.14-.32.19-.13.07-.27.13-.4.2-.13.06-.38-.04-.39-.18,0-.14-.07-.23-.17-.3-.28-.2-.4-.5-.57-.77-.16-.26-.33-.51-.49-.76-.12-.19-.24-.37-.36-.56-.12-.18-.25-.35-.36-.53-.06-.09-.09-.19-.15-.28-.21-.28-.43-.54-.63-.82-.09-.12-.16-.26-.25-.38-.11-.16-.24-.31-.36-.46-.07-.09-.12-.19-.19-.28-.2-.28-.4-.56-.6-.83-.11-.15-.25-.28-.36-.43-.15-.2-.13-.25.1-.35.41-.17.78-.41,1.11-.69.11-.09.24-.16.35-.25.14-.12.25-.28.39-.39.22-.17.46-.32.68-.49.19-.14.37-.28.54-.44.23-.22.43-.47.66-.7.25-.25.52-.48.78-.72.25-.22.49-.45.75-.66.13-.1.28-.17.42-.27.2-.15.38-.31.58-.47.09-.07.2-.12.3-.19.05-.03.09-.06.13-.1.23-.22.45-.44.69-.65.12-.11.27-.19.41-.29.22-.16.44-.31.64-.48.15-.13.31-.2.49-.27.15-.06.29-.16.43-.26.08-.06.15-.14.22-.21.03-.02.06-.04.09-.06.12-.07.25-.14.37-.22.1-.06.19-.12.29-.17.2-.11.4-.22.6-.33.26-.15.53-.29.79-.44.12-.07.24-.16.36-.23.13-.07.26-.13.4-.18.13-.05.14-.12.04-.21-.09-.08-.18-.17-.27-.25-.12-.1-.26-.19-.35-.31-.07-.09-.13-.22-.14-.34-.01-.17.02-.35.05-.52.01-.09.06-.18.09-.27,0-.02.03-.05.04-.07.13-.28.35-.4.66-.37.27.03.54.06.81.08.08,0,.16-.03.24-.03.08,0,.17.02.26.02.06,0,.13.02.19,0,.23-.07.35-.03.42.18.09.27.17.54.26.8.07.19.07.37.09.57.02.23.16.44.3.64.15.22.27.45.41.67.08.14.16.27.24.41.01.02.04.03.08.05,0-.04.01-.07.02-.12.13.08.27.14.37.24.12.11.19.26.29.39.1.14.18.29.18.46,0,.17.11.3.21.43.08.11.22.19.32.29.23.25.44.5.66.76.02.03.03.06.06.09.2.22.39.45.59.67.01.01.02.04.04.09-.09-.06-.14-.1-.2-.15,0,0-.02.01-.02.02.03.05.06.11.1.16.13.15.31.29.37.46.05.15.13.29.22.41.18.25.38.49.56.74.08.1.14.21.2.32-.39-.34-.71-.72-.92-1.19-.02,0-.04.01-.06.02,0,.04.01.08.03.12.17.41.5.72.77,1.07.22.28.41.58.63.86.07.09.17.15.25.22.01.01.04.03.05.02.1-.04.15-.01.17.08.01.07.02.14.04.24.19.16.38.36.51.61.06.12.21.2.31.29.27.23.54.46.82.69.12.1.25.18.38.27.03.02.07.06.08.09.06.27.31.38.49.55.17.16.36.3.52.47.27.28.52.58.77.87.07.08.14.15.21.22.28.29.55.59.83.88.26.27.54.52.8.79.27.28.51.58.79.85.21.22.46.41.68.61.07.06.12.13.19.19.1.08.2.15.3.23.16.12.31.23.47.35.13.09.26.18.39.27.08.06.17.1.24.17.24.2.47.41.7.62.15.14.26.31.4.45.17.16.35.31.54.45.16.12.32.22.49.32.04.02.11.02.16,0,.02,0,.02-.08.02-.12,0-.05-.01-.1-.02-.15.02-.01.04-.02.06-.04.11.09.22.19.33.27.15.11.31.2.47.3l.06-.04c-.07-.11-.14-.23-.21-.34-.01-.02-.05-.03-.05-.06-.01-.05-.01-.09-.02-.14.05,0,.11-.02.14,0,.14.08.27.16.39.25.1.07.18.17.28.24.1.07.22.11.32.16.39.22.78.44,1.17.66.03.02.05.04.07.06.14.15.32.23.5.32.14.07.26.16.39.24.13.07.25.07.39-.04-.06-.06-.12-.12-.18-.19-.07-.08-.14-.17-.22-.24-.15-.13-.3-.26-.46-.37-.09-.06-.11-.14-.09-.22,0-.03.09-.07.13-.06.06.02.11.07.15.12.26.31.52.62.78.93.02.02.07.01.14.02.05.16.27.18.42.28.28.18.57.36.86.53.06.03.12.07.19.08-.77-.77-1.54-1.53-2.33-2.32-.02.03-.03.06-.04.08-.09-.01-.3-.25-.3-.32,0-.04.02-.09.05-.1.03-.01.1,0,.12.02.1.09.19.19.28.28.27.28.53.57.8.84.37.38.73.75,1.11,1.12.27.26.57.5.85.74.23.2.45.39.68.58.3.25.61.5.92.75.23.19.45.39.69.57.27.21.55.4.83.61.19.14.38.3.57.44.24.17.48.32.73.48.11.07.2.16.32.23.14.08.29.14.43.21.02,0,.04.03.07.06-.05.02-.1.06-.12.04-.09-.04-.17-.12-.27-.15-.11-.03-.23-.04-.34-.05,0,.02-.01.04-.02.05.06.03.11.07.17.1.29.15.58.3.87.45.09.04.18.06.27.11.04.02.06.08.09.12-.05,0-.12.03-.16,0-.26-.12-.48-.27-.69-.46-.04-.04-.11-.06-.17-.08-.14-.04-.28-.06-.42-.11-.06-.02-.13-.07-.16-.12-.07-.11-.14-.1-.23-.05-.13.07-.25.14-.4.22.14.13.28.27.44.39.25.2.5.39.77.57.14.1.27.18.29.37,0,.08.14.14.22.2.03.03.07.06.12.1-.2.06-.31-.05-.43-.13-.11-.07-.25-.12-.3-.26-.2,0-.27-.19-.44-.23,0-.01,0-.02.01-.04.07.01.14.02.21.03,0,0,.01-.02.02-.02-.06-.07-.11-.14-.18-.2-.21-.2-.43-.4-.64-.6-.23-.21-.44-.44-.69-.62-.19-.14-.44-.2-.65-.32-.21-.11-.42-.24-.62-.37-.06-.04-.09-.14-.14-.2-.08-.1-.14-.22-.3-.23-.01,0-.02-.01-.03-.02-.17-.24-.47-.32-.7-.48-.03-.02-.08-.01-.12-.02.02.04.02.1.05.12.1.09.22.18.33.27.04.03.07.07.09.12-.32-.16-.57-.42-.91-.52.1.1.19.2.29.3,0,.01-.02.02-.03.03-.17-.13-.34-.26-.51-.39-.01,0-.02.01-.04.02.04.08.06.19.12.25.16.16.36.29.49.47.12.15.27.23.41.35.06.05.1.14.16.19.24.18.48.36.72.53.01,0,.02.02.01.05-.09-.05-.18-.11-.28-.17,0,.02-.02.04-.03.06-.02.1-.08.13-.17.06-.11-.09-.2-.19-.3-.29-.12-.12-.24-.23-.36-.35-.06-.06-.1-.12-.16-.18-.05-.05-.13-.09-.18-.14-.13-.12-.25-.26-.38-.38.01,0,.02-.01.04-.02-.03-.05-.06-.11-.09-.16-.02-.05-.03-.1-.06-.14-.05-.09-.11-.17-.17-.25-.1-.13-.2-.26-.3-.39-.02-.02-.05-.03-.08-.04,0,.03-.01.07,0,.09.12.15.24.3.36.45.01.02.02.04.03.06,0,0-.02.01-.03.02-.11-.12-.21-.25-.34-.35-.18-.15-.38-.29-.57-.44-.09-.07-.13-.03-.14.07,0,.13,0,.27-.02.4-.03.32-.06.64-.11.95-.07.4-.2.79-.44,1.13-.17.24-.33.49-.52.71-.09.09-.26.14-.4.16-.2.02-.35.11-.52.2-.08.04-.2.04-.3.04-.11,0-.21,0-.32,0-.1.01-.2.06-.3.05-.19,0-.37.02-.54.11-.11.05-.27.01-.37.07-.16.1-.31.02-.46.05-.21.03-.42.03-.63.04-.02,0-.05,0-.07,0-.22-.13-.47-.07-.7-.09-.05,0-.09-.04-.14-.06-.03-.01-.06-.04-.08-.04-.28-.01-.55-.03-.83.03-.3.06-.61.04-.91-.04-.11-.03-.24,0-.35,0-.43-.01-.86-.03-1.29-.04-.14,0-.27.02-.41.04-.21.02-.42.04-.63.08-.05,0-.08.06-.12.09-.04.03-.07.07-.11.09-.18.07-.22.22-.09.35.19.18.39.34.59.51.03.02.07.03.11.04-.04.16.06.25.22.24.06,0,.26.14.28.19.03.05.07.1.12.14.05.04.13.06.17.11.24.22.42.5.62.76.13.17.29.32.44.48.29.32.57.63.85.96.34.41.66.83.99,1.24.09.11.18.21.27.32.19.22.38.45.58.66.19.2.4.38.6.57.15.15.29.3.42.45.19.22.4.42.56.66.14.22.33.42.45.66.23.44.59.81.95,1.16.27.27.57.51.85.77.19.19.35.4.53.6.1.1.21.19.3.3.12.13.22.27.33.4.18.2.37.38.55.58.3.32.6.65.9.98.17.19.33.39.48.6.09.11.14.25.23.36.1.13.22.25.32.38.08.11.14.24.2.37.13.27.35.47.57.67.1.09.2.19.26.3.15.26.37.44.63.59.18.1.32.25.43.42.05.08.16.13.26.16.11.04.16.1.17.21.03.18.12.36.12.54,0,.2.1.39,0,.6-.1.21-.12.47-.08.72.04.21.1.39.22.57.05.08.05.21.03.31-.03.16.03.26.12.38.06.07.05.2.06.31,0,0-.05.03-.08.03-1,0-2.01,0-3.01,0-.01,0-.03,0-.03,0ZM17.35,15.2c-.21,0-.32.12-.4.29-.01.03-.05.04-.07.06-.23.13-.46.26-.69.39-.24.14-.48.28-.72.42-.12.07-.24.15-.36.22-.24.14-.48.28-.72.41-.17.09-.33.2-.51.26-.28.09-.58.15-.87.22-.09.02-.09.06-.04.12.06.06.12.11.17.17.11.12.19.26.31.37.08.07.2.13.33.08.25-.1.51-.21.76-.31.29-.12.52-.33.82-.45.2-.08.37-.21.55-.32.13-.08.23-.21.37-.25.24-.08.39-.27.58-.41.19-.15.35-.35.51-.53.24-.27.62-.41.72-.79,0-.01.02-.01.03-.02.15-.19.4-.24.66-.14.14.06.21.16.22.26.02.11-.04.25-.1.34-.08.11-.11.21-.04.32.03.05.06.1.07.16.03.14.06.29.08.44.04.25.08.5.12.74.02.1.04.2.06.3.05.19.1.39.16.58.03.09.07.17.09.27.06.29.1.59.16.88.04.19.09.39.16.57.06.18.14.34.21.51.01.03.02.06.02.09,0,.08,0,.17.01.24.06.2.14.4.2.61.03.1.04.2.07.31.06.22.13.44.18.66.02.08.02.17.02.26.02.02.07.06.08.1.05.2.09.39.13.59.01.06.03.12.05.18.03.12.06.24.09.36.05.23-.04.49.2.66,0,0,.02.01.02.02,0,.04,0,.08-.01.11,0,.01-.06,0-.1,0-.06-.01-.12-.05-.17-.04-.28.05-.55.1-.82.16-.44.1-.91.06-1.35.21-.24.08-.5.11-.73.2-.35.13-.62.38-.92.6-.05.03-.07.09-.11.13-.12.13-.25.26-.37.4-.1.11-.24.19-.26.35,0,.02-.04.03-.05.04-.04.05-.09.1-.11.16-.04.11-.03.25-.1.32-.12.11-.11.22-.13.35-.02.14-.06.28-.05.42,0,.19.03.39.08.58.04.13.08.27.23.34.11.06.2.16.31.23.11.08.23.22.35.22.2,0,.36.1.56.08.3-.03.6.04.91.06.16.01.33,0,.49,0,.26,0,.52-.03.77-.03.2,0,.39.04.59.05.24.02.46-.06.68-.12.26-.08.52-.15.78-.19.28-.04.57-.02.85-.04.52-.03,1.04-.08,1.57-.11.46-.03.92-.05,1.38-.08.36-.03.71-.07,1.07-.11.42-.05.85-.1,1.27-.14.36-.03.72-.05,1.08-.09.33-.03.67-.06,1-.09.13-.01.27-.07.4-.05.36.06.74.03,1.09.2.08.04.16.1.2.16.07.1.16.15.28.18.14.04.26.1.4.14.1.03.21.04.31.04.05,0,.11-.02.16-.02.2.02.39.08.6.01.06-.02.13,0,.19,0,.2-.02.4-.04.52-.22.11-.15.21-.29.4-.36.07-.03.19-.1.06-.21-.01,0,0-.04,0-.06.06-.18.18-.29.38-.3.11,0,.23,0,.34.01v.04s.09.03.14.05c.02,0,.04.02.04.03.06.12.18.1.28.11.11.02.22.03.29-.09.01-.02.07-.03.11-.03.24,0,.48.03.72.03.19,0,.37-.08.56,0,.11.04.22.03.32-.02.04-.02.09-.02.13-.01.23.03.47.06.7.08.16.01.33,0,.49,0,.06,0,.13,0,.19,0,.22.02.45.09.65-.07.02-.02.07-.02.11-.01.11,0,.21-.02.26-.11.06-.12.17-.18.29-.24.1-.05.36-.05.41.02.1.13.21.27.29.41.09.15.08.16.25.07.02,0,.04-.02.07-.02.22,0,.43.01.65,0,.13,0,.26-.05.39-.08.09-.02.17-.05.26-.06.2-.02.41-.02.61-.04.27-.04.55-.08.73-.32.02-.03.06-.05.08-.06.07.04.14.11.18.1.16-.07.34-.13.44-.26.19-.24.35-.5.49-.77.1-.2.14-.44.24-.65.13-.26.13-.53.18-.8.02-.11.05-.22.06-.33,0-.1.01-.2,0-.3-.01-.16-.01-.33-.22-.4-.08-.03-.14-.08-.21-.13,0,0,0-.02.01-.02.05.01.11.03.16.04.02-.02.03-.04.05-.06-.05-.02-.1-.04-.15-.06.01,0,.03-.02.04-.03.01-.17-.16-.24-.25-.34-.11-.12-.23-.25-.39-.32,0,.01-.02.02-.03.03.02.03.04.07.06.1l-.04.03c-.05-.07-.1-.14-.13-.18-.08-.06-.14-.11-.2-.15,0-.01.02-.02.03-.03.04.02.08.03.09.04-.03-.05-.07-.13-.12-.2-.01.01-.03.02-.04.03v.11c-.19-.13-.34-.27-.56-.34-.27-.09-.49-.29-.73-.44-.02-.01-.03-.05-.04-.07.03,0,.06,0,.08,0,.06.03.12.06.19.09.01-.03.02-.04.02-.05,0-.15-.12-.19-.22-.26-.15-.1-.34-.17-.38-.36.06-.03.12-.06.2-.1-.36-.41-.72-.78-1.19-1.04-.02.02-.04.03-.06.05.13.18.26.36.4.53.04.05.11.09.04.17-.19-.15-.33-.37-.62-.37.07.09.16.17.25.25.17.16.36.31.52.48.07.07.12.11.19.06.17.15.34.3.5.45,0,.01-.02.02-.03.04-.22-.13-.44-.26-.66-.4-.3-.19-.61-.38-.91-.56-.1-.06-.2-.11-.31-.15-.03-.01-.08.02-.12.03.02.04.02.1.05.12.19.11.38.21.58.32.25.14.5.28.75.42.16.09.32.18.48.27.12.07.24.13.35.21.17.11.32.23.49.34.09.05.2.07.29.11.03.01.05.08.04.11-.01.05-.06.12-.09.12-.09,0-.19-.03-.26-.08-.19-.12-.37-.25-.56-.37-.05-.04-.12-.05-.17-.09-.09-.07-.16-.17-.26-.23-.21-.13-.43-.25-.65-.37-.2-.11-.41-.22-.61-.34-.01,0-.02.02-.03.03.02.06.04.11.06.16-.08-.01-.17-.05-.25-.04-.09.01-.11,0-.13-.08-.04-.16-.13-.29-.3-.37-.07-.03-.11-.12-.17-.18.06-.02.12-.04.19-.07.01,0,.02-.02.04-.04-.06-.04-.13-.08-.17-.13-.1-.1-.18-.21-.28-.31-.02-.02-.05-.03-.08-.05-.21-.17-.48-.28-.53-.57,0-.02-.04-.05-.06-.07-.1-.07-.21-.13-.29-.21-.15-.15-.27-.32-.42-.47-.05-.06-.13-.1-.19-.15-.11-.1-.21-.22-.33-.31-.3-.24-.62-.46-.93-.69-.2-.15-.41-.29-.6-.44-.17-.14-.32-.32-.5-.45-.27-.21-.46-.48-.69-.71-.49-.49-.96-.99-1.44-1.48-.12-.13-.24-.27-.36-.41-.11-.13-.21-.27-.33-.4-.1-.1-.21-.21-.34-.27-.23-.1-.49-.1-.72-.21-.01,0-.03,0-.04,0-.14.08-.2-.03-.28-.11-.05-.05-.12-.1-.18-.14-.12-.08-.25-.14-.39-.23.1-.04.13-.08.05-.14-.04-.03-.08-.09-.08-.14.01-.13-.09-.17-.16-.24-.07-.05-.16-.09-.21-.15-.06-.09-.13-.11-.22-.13-.09-.01-.2-.13-.19-.21,0-.02.06-.05.09-.05.06,0,.12.02.17.02-.01-.06-.05-.09-.07-.13-.02-.05-.05-.12-.03-.15.09-.11.02-.17-.07-.23-.05-.03-.1-.06-.15-.1-.36-.32-.73-.63-1.08-.95-.19-.17-.37-.35-.55-.53-.1-.1-.18-.21-.28-.31.04-.02.07-.04.12-.06-.29-.34-.58-.66-.86-.99.02-.03.04-.06.05-.07-.04-.06-.07-.11-.1-.16-.11-.16-.22-.33-.33-.49-.03-.05-.09-.09-.12-.14-.07-.13-.11-.28-.29-.32-.03,0-.05-.04-.07-.06-.14-.25-.27-.5-.43-.75-.09-.14-.22-.27-.33-.4-.07-.08-.15-.14-.2-.22-.06-.08-.1-.17-.15-.27-.04.05-.06.07-.09.11-.03-.06-.06-.11-.08-.15l-.03.02c.03.24.25.42.32.64-.01,0-.02.01-.03.02-.09-.13-.18-.26-.27-.39-.03.05-.04.07-.05.1-.02-.06-.02-.12-.05-.15-.15-.17-.3-.33-.46-.49-.02-.02-.06-.04-.12-.08.05.16.08.29.12.42-.02,0-.04.01-.06.02-.05-.13-.1-.27-.15-.4,0-.01,0-.03.01-.04.1-.1.02-.15-.05-.22-.14-.14-.27-.28-.41-.42.11-.15.13-.16.24-.03.11.13.21.27.31.41.09.12.16.24.25.37.03-.04.04-.07.07-.08.12-.08.09-.16.02-.25-.11-.14-.15-.33-.33-.45-.1-.07-.14-.19-.29-.15,0,0,0-.01-.01-.02.14-.09.17-.16.11-.24-.05-.07-.1-.13-.16-.19-.15-.15-.28-.32-.35-.51-.08-.23-.24-.4-.43-.59-.2.18-.42.33-.59.53-.14.16-.31.26-.49.34-.27.13-.32.21-.21.48.06.14.15.27.22.41.17.36.32.74.49,1.1.17.36.36.71.55,1.06.1.18.2.36.31.53.14.24.27.47.42.7.05.09.14.15.2.24.12.17.23.35.36.51.17.21.39.39.46.66,0,.03.04.05.06.07.17.18.36.35.5.54.31.44.6.89.9,1.34.02.04.04.08.05.12-.01.01-.03.02-.04.03-.07-.06-.15-.12-.2-.2-.17-.24-.32-.48-.5-.72-.21-.28-.43-.56-.64-.84-.01-.02-.04-.04-.04-.06,0-.18-.15-.27-.24-.39-.22-.29-.51-.53-.72-.83-.08-.1-.17-.19-.24-.3-.07-.12-.12-.26-.19-.38-.08-.14-.18-.28-.26-.42-.1-.17-.18-.34-.28-.5-.03-.06-.08-.12-.11-.18-.12-.23-.23-.46-.34-.69-.03-.06-.09-.12-.12-.18-.12-.23-.22-.46-.34-.69-.1-.2-.2-.41-.33-.6-.12-.19-.17-.41-.37-.56-.11-.08-.08-.23.03-.28.13-.06.26-.11.38-.17.13-.07.27-.13.38-.22.25-.21.49-.43.74-.64.02-.01.03-.03.03-.04-.05-.08-.08-.16-.14-.22-.07-.07-.16-.12-.24-.18-.06-.05-.15-.11-.15-.15.04-.18-.08-.37.03-.55,0,0-.01-.03-.01-.05,0-.05-.01-.09,0-.14.04-.2.03-.39-.07-.57-.03-.05-.05-.1-.06-.15-.01-.15-.11-.22-.25-.27-.31-.11-.62-.05-.92.02-.03,0-.06.09-.07.15,0,.07.02.14.01.21,0,.09-.05.18-.04.26.02.16.07.32.1.48.03.14.15.21.25.28.11.08.18.25.11.31-.1.09-.19.22-.36.2-.09-.01-.19,0-.26.04-.22.1-.44.21-.65.33-.35.2-.7.4-1.04.6-.42.24-.84.49-1.25.74-.32.2-.64.4-.95.62-.27.19-.52.4-.78.59-.21.15-.45.26-.64.42-.35.3-.67.63-1.01.94-.06.05-.14.07-.21.11-.03.02-.07.03-.1.05-.17.13-.35.26-.52.4-.1.08-.19.18-.28.27-.02.02-.03.04-.05.04-.24.07-.4.24-.55.41-.06.07-.12.15-.2.18-.19.07-.35.15-.48.31-.14.18-.31.34-.47.5-.33.33-.59.73-.99,1.02-.05.04-.13.03-.18.07-.26.19-.53.38-.78.59-.27.22-.49.49-.82.66-.25.13-.46.34-.69.51-.1.07-.12.13-.05.23.06.07.09.15.15.22.12.15.24.3.37.45.16.18.23.41.43.57.12.09.19.24.28.37.06.1.12.2.16.28.21,0,.39-.05.55-.02.28.05.58.08.82.26.12.09.27.17.35.28.08.12.11.28.1.42,0,.13-.07.27-.12.43-.05-.05-.08-.07-.09-.08-.08.03-.15.06-.22.08-.25.06-.27.12-.13.32.01.02.02.04.03.06.08.15.14.3.23.44.16.23.33.46.5.68.06.08.1.15.1.25,0,.12.07.15.18.11.1-.04.19-.1.29-.14.28-.11.57-.2.84-.31.26-.11.51-.25.75-.38.29-.16.58-.32.88-.49.16-.09.33-.17.49-.27.33-.2.64-.42.97-.62.14-.09.22-.05.28.14ZM32.81,29.35c-.2.01-.36.03-.51.04-.05,0-.1,0-.14-.02-.09-.04-.18-.1-.27-.13-.19-.06-.38-.09-.57-.15-.06-.02-.11-.08-.15-.12-.15-.15-.29-.31-.52-.35-.4-.08-.8-.05-1.2-.03-.38.02-.75.06-1.13.1-.41.04-.82.08-1.23.13-.25.03-.49.08-.74.11-.29.03-.57.06-.86.08-.27.02-.55.04-.82.06-.42.03-.83.06-1.25.1-.23.02-.47.07-.7.07-.38,0-.77.01-1.14.1-.09.02-.19,0-.27.03-.17.06-.37.05-.46.25-.06.13-.16.14-.26.05-.05-.05-.09-.09-.16-.02.17.11.35.21.5.33.33.25.64.51.96.77.08.07.17.13.25.2.11.09.22.19.34.28.18.13.38.24.54.38.17.15.3.35.47.51.18.18.39.34.58.51.05.04.07.12.12.15.26.18.5.37.67.63.05.07.11.14.17.21.21.24.42.48.63.73.09.11.17.23.28.33.17.16.35.31.52.47.3.29.59.59.89.87.22.21.46.41.69.62.02.02.05.04.07.06.08.08.18.15.25.24.15.18.29.17.39-.03.14-.27.27-.55.4-.82.16-.33.33-.66.5-.99.08-.15.16-.3.24-.46.09-.18.15-.38.25-.56.26-.45.53-.9.8-1.35.04-.07.08-.14.12-.21.13-.25.26-.5.4-.75.13-.23.26-.45.39-.68.09-.15.17-.29.26-.44.08-.14.16-.29.24-.43.09-.16.19-.3.24-.48.03-.12.13-.23.22-.37ZM34.57,28.8c-.12.07-.26.14-.39.22-.13.09-.2.23-.37.3-.06.02-.09.14-.13.21-.02.04-.02.09-.04.12-.06.07-.04.14,0,.21.06.1.13.19.18.3.04.08.07.17.12.25.05.08.14.16.16.24.03.12.09.16.21.16.11,0,.2.07.23.18.08.4.29.74.56,1.04.07.07.13.15.18.23.11.18.21.37.31.55.05.08.15.15.18.23.08.26.28.46.41.69.15.25.33.48.5.72.2.28.4.56.61.84.16.21.33.41.5.61.15.19.3.39.46.58.31.35.62.69.93,1.03.14.16.27.32.42.48.08.09.18.16.27.25.22.24.42.48.64.72.17.19.36.36.54.55.25.27.5.55.75.82.25.26.52.52.78.78.14.14.28.28.42.42.1.1.21.2.31.3.12.12.24.25.37.36.18.17.37.34.55.5.3.27.6.53.91.79.23.2.47.38.71.58.28.23.55.46.82.69.26.21.51.42.77.63.04.03.08.06.13.07.15.02.29.02.44.03.4.03.8.05,1.2.08.15,0,.3,0,.45,0,.07,0,.14-.02.21-.03,0-.02.02-.03.03-.05-.03,0-.05-.02-.08-.03-.12-.07-.25-.12-.34-.21-.21-.2-.41-.41-.61-.62-.14-.15-.26-.32-.42-.44-.16-.12-.27-.26-.36-.43-.07-.12-.11-.26-.22-.33-.19-.15-.32-.32-.41-.53-.08-.17-.2-.3-.41-.34-.03,0-.06-.08-.08-.12-.02-.09,0-.2-.05-.28-.16-.28-.31-.56-.56-.77-.1-.08-.19-.18-.28-.27-.23-.25-.46-.51-.69-.76-.22-.24-.45-.48-.68-.73-.13-.15-.24-.31-.38-.45-.27-.27-.54-.53-.83-.77-.4-.32-.69-.73-1.03-1.11-.11-.13-.15-.33-.37-.36-.02,0-.04-.04-.05-.07-.06-.15-.1-.31-.19-.44-.26-.34-.53-.68-.82-1-.31-.35-.63-.71-.98-1.03-.34-.32-.6-.7-.9-1.04-.34-.39-.66-.79-1.06-1.12-.04-.04-.07-.09-.1-.14-.09-.13-.17-.27-.27-.38-.25-.3-.52-.59-.78-.88-.1-.11-.19-.25-.31-.34-.28-.21-.48-.5-.78-.69-.18-.11-.35-.24-.52-.36-.04-.03-.07-.07-.1-.1-.1-.1-.18-.21-.29-.29-.11-.09-.24-.15-.38-.24ZM1.37,45.29c.09-.01.18-.03.26-.03.21,0,.41,0,.62,0,.21,0,.43.02.64.02.04,0,.08-.04.12-.07.38-.37.78-.74,1.15-1.12.42-.43.82-.88,1.22-1.32.21-.24.41-.49.61-.73.32-.38.64-.75,1.01-1.1.25-.23.46-.51.67-.78.18-.23.32-.48.48-.71.07-.11.16-.21.23-.31.06-.09.11-.18.17-.26.03-.04.08-.08.11-.12.19-.23.36-.46.57-.67.16-.17.37-.3.55-.45.21-.17.41-.35.61-.53.02-.02.04-.05.06-.07.05-.05.09-.1.15-.15.06-.05.14-.08.2-.14.17-.16.34-.33.51-.48.3-.27.61-.54.92-.81.21-.18.42-.36.63-.54.11-.09.21-.19.32-.27.31-.22.63-.43.94-.65.26-.19.51-.39.76-.6.19-.16.38-.32.57-.47.21-.16.43-.29.64-.44.17-.13.35-.25.5-.4.11-.1.27-.1.36-.24.11-.16.3-.28.44-.42.2-.22.39-.45.6-.67.14-.15.29-.28.44-.42.05-.05.13-.07.17-.13.12-.16.13-.35.14-.54,0-.03-.06-.07-.1-.08-.08-.02-.17-.02-.26-.02-.08,0-.18-.02-.25,0-.2.09-.4.04-.6.06-.07,0-.17.03-.22,0-.17-.11-.36-.03-.53-.06-.02,0-.06.03-.07.05-.08.15-.19.29-.22.45-.06.27-.31.4-.46.6-.16.22-.42.36-.6.57-.27.29-.5.61-.75.91-.19.22-.39.44-.61.64-.16.14-.35.24-.54.36-.08.05-.18.08-.18.2,0,.02-.04.04-.07.05-.1.04-.21.05-.3.11-.13.08-.25.18-.37.27-.26.2-.53.4-.78.61-.18.15-.4.26-.5.49-.02.03-.08.05-.12.07-.11.05-.23.08-.32.15-.22.16-.42.33-.63.5-.28.23-.55.47-.82.71-.18.15-.29.39-.56.42,0,0,0,0-.01,0-.35.23-.7.46-1.05.69-.41.26-.72.61-1.02.97-.13.15-.26.3-.39.45-.19.23-.39.45-.58.68-.17.21-.33.42-.5.63-.06.07-.14.11-.2.17-.12.12-.23.25-.33.39-.15.19-.28.39-.43.59-.02.02-.04.05-.06.07-.06.05-.13.1-.17.16-.08.14-.14.3-.21.45-.01.03-.04.07-.07.08-.18.07-.26.24-.36.38-.15.21-.3.42-.45.62-.3.4-.59.8-.89,1.2-.14.19-.28.37-.42.56-.12.15-.35.23-.33.49ZM33.02,29.34c-.07.15-.15.28-.19.43-.06.22-.18.41-.31.58-.19.26-.38.51-.49.81-.04.11-.11.2-.17.3-.09.16-.2.31-.28.47-.05.1-.05.22-.1.32-.05.09-.14.16-.21.24-.01.02-.02.04-.03.06-.1.22-.19.44-.38.61-.05.04-.09.1-.12.16-.12.23-.24.47-.36.7-.06.11-.11.23-.17.35-.05.11-.1.21-.16.32-.11.19-.22.38-.33.57-.07.11-.12.23-.18.35-.06.12-.13.24-.19.37-.1.23-.21.47-.3.71-.08.22-.32.36-.3.62,0,.02-.03.04-.04.05-.19.14-.26.35-.34.55-.07.21-.14.42-.26.62-.15.23-.27.47-.4.71-.05.09-.07.18-.13.27-.12.2-.26.39-.38.58-.19.3-.3.64-.53.93-.02.02-.02.05-.03.07-.05.1-.11.21-.16.31-.18.32-.35.64-.53.96-.02.04-.04.08-.07.1-.2.14-.26.36-.36.56-.04.08-.07.16-.11.24-.09.17-.21.34-.28.52-.13.33-.23.67-.36,1-.11.29-.26.56-.39.85-.11.25-.2.51-.29.77-.01.04,0,.13.02.14.09.05.19.1.29.11.33.05.66.07.99.12.12.02.19-.03.23-.12.16-.36.3-.72.46-1.08.14-.32.28-.64.43-.96.16-.33.34-.65.51-.98.07-.13.12-.26.17-.4.04-.11.05-.22.09-.33.1-.23.23-.44.32-.67.18-.43.33-.86.51-1.29.14-.32.26-.66.45-.95.2-.32.27-.68.49-.99.08-.11.12-.26.17-.39.03-.08.03-.17.07-.24.06-.14.15-.26.21-.4.11-.23.23-.47.32-.71.1-.25.16-.5.25-.75.08-.23.18-.45.33-.65.2-.25.38-.51.51-.8.12-.26.27-.52.34-.79.05-.2.12-.38.2-.56.06-.14.11-.28.21-.4.21-.27.34-.57.43-.88.05-.16.13-.29.22-.42.12-.17.22-.36.3-.55.09-.21.15-.43.21-.65.08-.26.12-.55.34-.77.05-.05.06-.12-.01-.19-.12-.11-.11-.23-.03-.36.06-.09-.02-.1-.1-.14ZM19.28,29.66c.24.2.48.41.72.61.21.18.41.35.62.53.16.14.32.3.48.44.18.15.37.29.54.45.14.13.27.28.4.42.22.22.44.44.65.67.18.18.35.36.53.53.14.14.3.26.44.4.16.15.3.32.46.47.31.29.63.57.94.86.06.05.09.12.15.18.15.16.31.31.46.47.06.06.11.12.17.18.11.13.22.26.34.38.2.19.41.37.6.57.13.14.22.32.41.41.06.03.13.06.18.1.22.21.44.43.71.58.09.05.13.04.17-.04.07-.15.15-.3.22-.46.02-.04-.01-.11-.04-.16-.13-.16-.32-.26-.46-.42-.16-.19-.38-.35-.57-.51-.14-.12-.3-.24-.43-.37-.21-.21-.39-.44-.59-.65-.23-.23-.48-.45-.71-.69-.15-.16-.26-.35-.42-.5-.18-.17-.35-.34-.47-.55-.02-.03-.05-.05-.07-.08-.16-.15-.33-.28-.48-.44-.14-.15-.27-.29-.47-.36-.03-.01-.06-.04-.08-.07-.13-.17-.25-.36-.4-.51-.21-.21-.45-.4-.68-.59-.07-.06-.16-.1-.23-.16-.23-.19-.44-.42-.7-.58-.31-.19-.57-.44-.85-.67-.16-.13-.28-.28-.43-.43-.04.02-.09.04-.14.07-.08.04-.15.06-.23-.02-.22-.22-.48-.05-.72-.07ZM37.21,46.8c-.07-.05-.13-.09-.19-.14-.05-.04-.11-.09-.14-.15-.05-.11-.23-.13-.18-.29,0,0-.02-.02-.03-.02-.25-.1-.35-.33-.52-.51-.11-.11-.2-.24-.3-.36-.11-.15-.24-.3-.31-.46-.13-.28-.34-.52-.53-.75-.2-.24-.36-.51-.63-.7-.16-.12-.27-.3-.48-.38-.03-.01-.05-.04-.07-.06-.19-.18-.38-.36-.57-.54-.03-.02-.06-.05-.09-.06-.33-.12-.44-.45-.68-.65-.16-.14-.26-.33-.4-.48-.09-.11-.21-.2-.31-.3-.14-.15-.28-.29-.41-.44-.23-.25-.45-.5-.68-.75-.14-.15-.23-.36-.48-.4-.02,0-.03-.03-.05-.04-.13-.11-.25-.23-.37-.34-.03-.03-.07-.07-.1-.1-.08-.07-.17-.14-.25-.2-.05.07-.1.15-.15.22,0,0,0,.02-.01.02-.09.2-.08.22.11.34.03.02.06.05.08.07.1.1.2.19.3.29.19.17.38.33.56.51.2.2.37.43.57.63.26.28.52.55.79.81.21.21.45.4.67.6.14.13.28.27.42.4.07.06.14.11.2.18.11.12.2.25.31.37.18.2.37.39.56.59.16.16.32.33.49.48.24.23.54.4.73.67.04.06.1.1.15.15.15.16.3.31.45.47.18.2.35.41.53.61.12.14.24.28.37.41.15.16.31.32.48.48.06-.07.1-.12.17-.21ZM49.09,48.21s0-.01,0-.02c.05,0,.09,0,.14-.02.28-.05.56-.1.84-.15.15-.02.19-.06.14-.21-.07-.22,0-.43,0-.64.01-.16.06-.31.1-.47.07-.25-.02-.47-.09-.7,0-.03-.05-.06-.08-.06-.18-.03-.35-.07-.53-.08-.34-.02-.68-.02-1.02-.02-.21,0-.41.02-.62.03-.09,0-.1.06-.06.13.1.18.18.37.2.58.04.39.11.78.18,1.17.04.24.08.32.32.35.16.02.32.06.48.09ZM2.64,47.06c0-.06,0-.11.02-.15.1-.26.13-.53.14-.81.01-.32-.06-.5-.43-.53-.15-.02-.3-.04-.46-.04-.11,0-.23,0-.32.05-.17.09-.23.26-.25.45-.03.22-.05.45-.08.67-.04.25.02.38.29.41.36.05.72.1,1.08-.05ZM47.58,24.19c.14-.12.19-.11.31.02.18.2.36.41.55.6.43.44.95.76,1.45,1.11.29.21.6.4.9.59.08.05.16.09.24.13.02,0,.06,0,.08-.01.01-.01.01-.06,0-.07-.1-.1-.19-.2-.31-.29-.16-.13-.35-.24-.51-.37-.34-.27-.67-.55-1.01-.83-.23-.19-.48-.36-.7-.56-.49-.45-1.03-.84-1.58-1.22-.08-.05-.13-.13-.21-.18-.07-.05-.16-.08-.24-.12-.23-.14-.45-.28-.67-.42-.05-.03-.1-.04-.16-.06,0,.01-.02.03-.03.04.56.62,1.22,1.13,1.88,1.63ZM48.23,25.23c-.04-.25-.25-.43-.49-.47-.02,0-.04-.02-.06-.03-.2-.15-.4-.31-.6-.46.07-.19.06-.23-.13-.24.02-.11-.05-.15-.15-.16-.02,0-.07,0-.07-.02-.07-.16-.11-.02-.18.03-.53-.32-.93-.82-1.51-1.12,0,.04,0,.05,0,.06.05.05.11.09.16.14.26.26.52.51.78.77.04.04.05.11.08.16-.01,0-.03.02-.04.03.32.21.68.37.95.64l-.03.03s-.09-.06-.14-.09c-.01.02-.02.03-.04.05.09.07.18.14.28.21.04.03.07.05.11.07.05.02.09.05.14.06.15.03.32.03.45.14.15.13.31.26.54.23.02,0,.04.02.06.03.2.17.39.34.6.5.11.09.23.16.35.23.07.04.14.09.21.13,0-.01.02-.02.03-.04-.4-.34-.8-.68-1.19-1.01-.05.05-.07.07-.1.11ZM21.78,2.15s0-.09.02-.11c.1-.12.06-.21-.06-.28-.08-.05-.08-.11-.06-.18.01-.04.03-.09.03-.13,0-.22,0-.45,0-.67,0-.03-.03-.07-.05-.08-.23-.16-.54-.09-.67.16-.06.12-.14.23-.06.37.03.06.11.12.1.17-.03.16.08.26.16.37.14.19.33.34.59.38ZM10.89,14.42s-.02.03-.02.05c.04.06.08.11.13.17.09.11.19.2.26.32.05.08.07.17.11.26.03.07.08.1.17.05.14-.07.28-.14.42-.2.14-.06.18-.12.08-.24-.12-.14-.25-.29-.47-.28-.04,0-.07-.02-.11-.02-.19-.03-.38-.07-.58-.1ZM43.01,21.5c.42.52.93.91,1.52,1.22.01-.01.02-.02.03-.03-.15-.15-.3-.29-.46-.44.03-.02.06-.04.09-.06,0-.01,0-.03,0-.04-.09-.01-.18-.03-.29-.04,0-.04,0-.1-.01-.15-.06.03-.1.04-.14.06,0-.04,0-.08,0-.11,0-.03,0-.06-.02-.08-.07-.08-.13-.16-.21-.23-.05-.04-.11-.06-.17-.09-.01.01-.02.02-.03.04.11.13.23.27.34.4-.24-.11-.37-.36-.65-.43ZM45.08,22.4c.25.21.48.42.72.62l-.02.02c-.06-.03-.11-.06-.19-.1.11.21.68.66.83.63-.13-.11-.25-.2-.37-.3.03-.02.06-.04.08-.05.1.07.18.14.27.2,0-.03,0-.04,0-.05-.13-.12-.27-.23-.4-.35-.18-.17-.36-.35-.54-.53-.12-.12-.21-.15-.35-.09ZM50.41,26.44s.03-.04.04-.06l-1.32-.87s-.02.03-.03.04c.38.37.8.69,1.31.89ZM40.8,20.57c.16.08.27.16.25.33,0,.02.03.05.06.06.24.16.49.31.74.47.07.04.15.09.22.13-.12-.21-1.15-1-1.27-.98ZM32.11,12.96l.03-.03c-.21-.28-.47-.5-.82-.62.18.17.37.33.56.49.04.03.06.08.1.14.02,0,.07.02.12.03ZM37.37,47.27c.13.1.26.19.38.28.09.07.17.07.24-.06-.11-.07-.25-.12-.33-.22-.1-.13-.17-.1-.29,0ZM32.68,13.54s.03-.02.04-.03c-.1-.1-.2-.21-.31-.32-.11.19-.03.28.27.35ZM47.33,24.29s-.03.03-.04.04c.14.12.28.24.43.35.01,0,.04,0,.06,0,0-.01.02-.03.02-.04-.16-.12-.31-.23-.47-.35ZM51.4,26.76c.09.12.24.14.4.21-.13-.13-.23-.23-.4-.21ZM47.47,24.22s-.02.03-.03.04c.12.08.23.16.35.25l.02-.03-.34-.26ZM27.47,7.26s-.03.02-.05.03c.08.1.15.19.23.29.01,0,.02-.02.04-.03-.07-.1-.14-.2-.22-.29ZM26.49,5.98s-.02.02-.03.03c.07.1.15.19.22.29.02-.01.04-.03.05-.04-.08-.09-.16-.18-.24-.27Z"/>
          <path class="cls-2" d="M37.43,49.4h-2.79s-.1-.28-.1-.28l.13-.11.11-.05c.08-.04.15-.08.23-.11.09-.04.18-.08.27-.12.19-.08.36-.16.52-.25.15-.09.29-.19.44-.3.15-.11.29-.21.45-.3.11-.06.14-.13.15-.27h0s-.03-.07-.03-.07c-.07-.16-.15-.32-.23-.48-.04-.08-.07-.1-.08-.11-.18-.1-.28-.26-.37-.39l-.05-.08s-.04-.05-.08-.08c-.28-.25-.52-.54-.75-.84-.14-.19-.33-.35-.52-.52l-.09-.08c-.11-.1-.22-.19-.33-.28-.14-.12-.29-.24-.42-.36-.12-.11-.22-.24-.32-.36-.05-.06-.09-.12-.14-.17-.07-.08-.14-.16-.22-.24-.09-.09-.18-.18-.28-.26-.04-.03-.07-.06-.11-.09-.07-.06-.14-.12-.21-.18-.07-.07-.13-.15-.19-.22-.06-.08-.13-.15-.19-.22-.2-.2-.39-.37-.59-.52-.22-.17-.42-.37-.6-.57l-.13-.14c-.13-.13-.25-.27-.37-.41-.08-.09-.15-.17-.23-.26-.14-.15-.26-.28-.39-.4-.04-.04-.09-.07-.14-.11-.05-.03-.1-.07-.15-.11-.09-.07-.17-.15-.26-.22-.07-.06-.13-.12-.2-.17-.02-.02-.04-.03-.05-.04,0,0-.01.03-.02.06-.02.07-.06.12-.09.16-.08.17-.14.31-.21.46l-.1.25c-.03.07-.06.15-.1.22-.06.12-.1.24-.15.37-.07.19-.14.39-.26.58-.05.08-.08.18-.11.28-.02.08-.04.16-.08.24-.04.09-.08.18-.13.27-.03.06-.07.13-.1.19-.02.04-.03.08-.04.11-.01.05-.03.1-.05.15-.08.19-.15.38-.24.57l-.1.22c-.1.22-.2.45-.33.66-.22.37-.4.78-.57,1.18l-.1.23c-.06.14-.14.28-.21.41-.06.11-.12.21-.17.32-.08.16-.14.33-.21.49l-.07.17c-.02.05-.04.11-.06.17-.06.17-.12.36-.27.53,0,0,0,.08,0,.12v.05c0,.21.04.37.13.52.06.1.11.2.14.3.03.07.04.14.04.2l.04.24-.34.04c-.1.01-.19.02-.28.02-.08,0-.16-.01-.24-.02-.07,0-.14-.02-.21-.02-.42,0-.84,0-1.26,0h-.95c-.2,0-.29-.09-.33-.16-.04-.07-.06-.19.04-.35l.03-.04c.13-.21.28-.46.57-.6.03-.02.07-.05.11-.08.03-.03.07-.05.1-.08.04-.03.09-.06.13-.09.06-.04.12-.08.18-.12.07-.06.14-.11.2-.18-.09-.12-.19-.26-.1-.48.1-.25.19-.5.28-.75.05-.13.09-.26.14-.39.02-.06.05-.12.08-.18l.16-.37c.1-.22.2-.43.29-.65.07-.18.14-.35.21-.53.09-.24.18-.48.28-.71.09-.21.2-.41.31-.6l.06-.11c.04-.06.08-.13.12-.19.05-.08.1-.15.13-.22.12-.3.29-.57.46-.83.09-.14.18-.29.27-.43.18-.33.39-.66.58-.97.15-.24.29-.47.43-.71.13-.22.25-.44.36-.66.08-.15.16-.3.24-.45,0-.02-.08-.13-.13-.15-.19-.08-.28-.2-.36-.33-.06-.09-.15-.16-.24-.24-.06-.05-.11-.09-.16-.14-.04-.04-.08-.09-.12-.13-.04-.04-.08-.09-.12-.13-.03-.03-.07-.06-.11-.08-.06-.04-.11-.08-.16-.13-.13-.12-.22-.24-.3-.35-.12-.17-.26-.37-.43-.53-.18-.17-.36-.35-.54-.52-.16-.16-.32-.33-.48-.5-.03-.04-.06-.08-.09-.13-.02-.02-.03-.05-.05-.07-.04-.05-.09-.11-.15-.15-.07-.06-.15-.11-.23-.16-.15-.1-.3-.21-.44-.33-.14-.13-.26-.27-.38-.4-.07-.09-.15-.17-.23-.26-.09-.09-.18-.18-.28-.27-.09-.08-.17-.16-.26-.25-.12-.13-.24-.26-.36-.39-.08-.08-.15-.16-.23-.24-.1-.11-.21-.22-.31-.32l-.1-.09c-.16-.15-.31-.3-.48-.44-.12-.1-.24-.19-.36-.28-.13-.1-.27-.2-.4-.31-.15-.13-.29-.26-.44-.4-.08-.07-.15-.14-.23-.21-.03-.03-.07-.06-.11-.09-.04-.03-.08-.06-.12-.1-.08-.07-.15-.14-.22-.21-.03.1-.05.2-.08.3l-.09.34h-.15c-.13-.01-.2.08-.34.22l-.05.06c-.07.07-.13.14-.19.22-.08.09-.15.17-.23.26l-.08.08c-.17.17-.34.35-.53.51-.12.1-.26.18-.39.26-.06.04-.12.07-.19.11-.05.03-.09.07-.14.1l-.27.21c-.2.15-.4.3-.59.46-.04.03-.08.07-.11.11-.05.05-.1.11-.16.15-.06.05-.14.1-.21.14-.05.03-.1.07-.15.1-.04.03-.08.07-.12.1-.05.05-.09.09-.14.13-.08.07-.17.13-.26.19l-.14.1c-.3.21-.59.43-.89.65l-.15.11c-.27.2-.54.39-.8.59-.16.12-.32.26-.48.41-.13.12-.25.25-.38.37-.09.09-.18.18-.27.27-.06.06-.12.12-.18.18-.15.16-.31.32-.5.45-.3.21-.59.43-.87.66l-.22.17s-.06.04-.09.06c-.05.04-.11.07-.14.11l-.11.13c-.2.23-.38.44-.46.71-.04.14-.15.28-.28.36-.07.05-.11.12-.16.21-.03.06-.07.12-.11.18-.06.08-.11.16-.17.24l-.13.19c-.05.07-.1.15-.15.22-.05.07-.11.15-.19.22-.09.08-.19.17-.28.25-.12.11-.25.21-.37.32-.05.04-.08.09-.12.14-.04.05-.08.1-.13.15-.05.06-.12.1-.18.15l-.08.06s0,0-.01,0c-.1.27-.28.48-.46.69l-.1.12c-.15.19-.32.36-.48.53-.1.1-.2.21-.29.31-.16.18-.31.36-.47.54l-.34.39c-.09.11-.19.21-.29.31-.12.11-.24.22-.36.33-.19.17-.37.34-.55.52-.12.12-.14.28-.14.4,0,.14,0,.27.02.41,0,.16.02.33.02.49,0,.09-.01.17-.02.26,0,.07-.02.13-.02.2,0,.08.02.16.05.21.1.18.27.48.04.8-.06.08-.16.12-.24.13-.05.01-.1,0-.13,0-.24.06-.49.07-.78,0-.29-.07-.6-.1-.9-.13h-.06c-.09-.01-.19,0-.31.02-.21.05-.4,0-.56-.03l-.11-.02c-.08-.01-.14-.07-.17-.16-.02-.06-.07-.2,0-.31.14-.21.27-.38.41-.52.03-.03.07-.07.1-.1.12-.12.23-.22.25-.35.02-.12,0-.25,0-.38,0-.06,0-.12-.01-.18-.01-.25-.02-.48.06-.72.02-.06.04-.13.05-.19.05-.17.09-.34.16-.5.05-.12.13-.21.2-.29.03-.03.06-.07.08-.1l.23-.3c.13-.17.25-.34.38-.51.08-.1.16-.21.24-.31l.61-.76c.08-.1.17-.21.24-.32.08-.12.15-.24.21-.36l.09-.16s.03-.08.08-.13c.14-.11.23-.26.32-.42.05-.08.1-.16.15-.24.08-.11.17-.21.27-.3.06-.06.12-.12.17-.18.12-.14.23-.29.35-.44l.18-.22c.09-.11.16-.21.24-.3l.13-.15c.14-.17.28-.34.44-.5.09-.1.19-.19.29-.28.07-.07.15-.14.22-.21.07-.08.14-.15.22-.23.1-.11.21-.23.32-.33.07-.07.14-.14.21-.22.14-.14.28-.29.45-.42.26-.19.5-.34.74-.48.18-.1.36-.21.46-.34.09-.12.2-.19.3-.25.06-.04.12-.07.16-.11.03-.03.06-.05.08-.06.16-.17.35-.3.57-.41.15-.22.35-.36.55-.5.12-.08.23-.16.33-.26.05-.05.11-.08.17-.11.03-.02.06-.03.08-.05.08-.07.16-.15.24-.23.11-.11.23-.22.35-.32.16-.13.34-.27.54-.36.2-.09.32-.17.41-.3.06-.08.14-.15.21-.2.02-.02.05-.04.07-.06.02-.02.04-.03.06-.04.13-.21.33-.29.5-.36.06-.02.11-.05.17-.08l.04-.02.25-.22c.24-.2.47-.4.7-.61.15-.14.28-.3.39-.49.21-.34.48-.6.75-.86l.1-.1s.05-.06.08-.1l.14-.18c.06-.07.12-.15.18-.22.09-.11.17-.22.26-.33-.11-.07-.22-.14-.32-.22-.06-.05-.11-.11-.15-.16-.03-.03-.05-.06-.08-.09-.03-.03-.07-.05-.1-.07-.03-.02-.06-.04-.09-.06-.1-.07-.24-.2-.21-.45.02-.16.01-.32,0-.5v-.17c0-.07,0-.15-.01-.22,0-.14-.01-.28,0-.42,0-.12.05-.23.08-.33l.03-.07s.03-.09.05-.13c.02-.04.04-.08.05-.12.04-.18.16-.28.26-.37.06-.05.11-.1.13-.14.05-.11.1-.21.18-.29.11-.11.23-.2.36-.3l.08-.06c.22-.17.44-.35.66-.51.08-.06.17-.11.26-.15.24-.1.48-.19.72-.27.08-.03.15-.03.21-.03.03,0,.06,0,.08,0,.09-.01.19-.03.28-.05.12-.02.25-.05.37-.06.11-.02.21-.03.32-.04.13-.01.25-.03.38-.05.08-.01.16-.04.25-.06.1-.03.19-.05.29-.07.06,0,.11-.01.17-.01,0-.03-.02-.06-.03-.09-.05-.2-.1-.41-.14-.61v-.05c-.03-.07-.04-.14-.06-.21-.02-.1-.04-.2-.07-.3-.06-.22-.11-.44-.18-.67-.06-.2-.12-.41-.18-.61l-.12-.39c-.02-.08-.05-.16-.07-.24l-.08-.29c-.08-.27-.15-.55-.22-.82-.03-.14-.06-.28-.09-.41-.02-.11-.04-.21-.07-.32-.03-.11-.05-.22-.08-.33-.03-.11-.06-.23-.09-.34-.07-.3-.14-.6-.2-.9-.04-.19-.07-.37-.11-.56-.05-.25-.09-.5-.15-.76-.02-.08-.06-.16-.1-.24-.06.02-.12.03-.19,0-.07-.02-.11,0-.23.07l-.07.04c-.18.1-.35.24-.53.43l-.02.02c-.12.22-.32.36-.49.49-.06.04-.12.09-.18.13,0,0-.02.02-.02.03-.03.04-.07.09-.13.12-.11.06-.23.11-.34.17-.14.07-.28.14-.42.21-.13.07-.26.16-.41.27-.21.17-.46.23-.69.29-.06.02-.13.06-.2.1-.03.02-.06.04-.09.06-.04.03-.09.05-.13.08-.06.04-.13.08-.19.12-.12.07-.25.13-.38.19l-.03.02c-.13.06-.31.05-.46-.04-.12-.07-.19-.18-.2-.29,0-.07-.03-.11-.1-.16-.25-.18-.39-.42-.52-.65-.03-.06-.07-.12-.1-.17-.1-.17-.21-.34-.32-.5l-.3-.47c-.07-.12-.15-.23-.22-.34-.05-.08-.11-.15-.16-.23-.07-.1-.14-.2-.21-.3-.03-.05-.05-.1-.08-.15-.02-.04-.04-.09-.06-.11-.11-.14-.22-.28-.33-.42-.1-.13-.21-.26-.31-.39-.05-.07-.1-.14-.14-.22-.03-.06-.07-.11-.11-.17-.06-.09-.13-.17-.2-.26-.05-.07-.11-.14-.16-.2-.04-.05-.07-.11-.11-.16-.03-.04-.05-.08-.08-.12l-.12-.17c-.16-.22-.32-.44-.48-.66-.05-.07-.11-.13-.16-.19-.07-.08-.14-.16-.2-.24-.08-.11-.16-.23-.12-.37.04-.14.17-.21.3-.26.37-.15.72-.37,1.06-.66.06-.05.12-.09.18-.13.06-.04.11-.07.16-.12.06-.05.11-.11.16-.17.07-.08.15-.16.24-.24.13-.1.27-.2.41-.3.09-.06.19-.13.28-.2l.03-.03c.17-.13.34-.26.49-.4.12-.11.22-.23.33-.35.11-.12.21-.23.33-.34.21-.21.43-.4.65-.6l.23-.21c.22-.2.44-.39.67-.58.08-.06.16-.11.25-.16.06-.03.12-.07.17-.11.1-.08.2-.16.3-.24.09-.07.18-.15.27-.22.06-.05.13-.09.2-.13.04-.02.07-.04.11-.06.04-.02.07-.05.1-.08l.23-.22c.15-.15.3-.29.46-.43.08-.07.18-.14.27-.2.05-.03.1-.07.15-.1l.15-.11c.16-.12.33-.24.48-.37.18-.15.37-.23.55-.31.12-.05.24-.13.36-.21.07-.05.11-.09.14-.12.03-.03.06-.06.09-.09.04-.03.07-.05.1-.07l.48-.29c.07-.04.13-.08.2-.12.11-.06.22-.12.33-.18l.36-.2c.23-.13.46-.25.69-.38.05-.03.11-.07.16-.1.07-.05.14-.09.21-.13.1-.06.21-.11.32-.15-.03-.03-.06-.06-.09-.08-.04-.03-.07-.07-.11-.1-.04-.03-.07-.06-.11-.09-.09-.07-.19-.15-.26-.25-.1-.13-.17-.29-.18-.44-.01-.18.02-.36.04-.53v-.04c.02-.09.05-.17.08-.24l.03-.07s.02-.05.03-.07c.17-.37.47-.53.85-.49l.29.03c.17.02.34.04.51.05.02,0,.05,0,.08-.01.05,0,.09-.02.14-.02.06,0,.12,0,.18.01.03,0,.06,0,.09,0h.05s.06.01.07,0c.33-.1.55,0,.65.29.04.13.08.26.13.39.04.14.09.28.14.42.06.17.07.33.09.49v.12c.03.19.16.38.28.55.11.16.21.33.31.5l.2.35.18.11s.07.04.11.07c.1.06.2.11.29.2.09.09.16.19.23.29.03.04.06.08.08.12.09.12.21.31.22.57,0,.1.07.19.15.29.05.07.11.11.16.16.06.05.12.09.17.15.18.19.35.39.52.59l.15.17s.04.05.05.07l.6.68s.04.07.06.1l.12.3c.06.07.12.16.15.25.04.12.1.24.19.37.11.16.24.32.36.47.07.09.13.17.2.26.09.12.16.24.22.35l.39.81s.02.03.03.04c.03.04.09.08.14.13.01.01.03.02.04.03.07,0,.13,0,.17.03.05.03.13.09.15.22.01.05.02.1.03.16v.02c.22.19.39.4.51.62.03.05.1.1.16.15.04.03.07.06.11.08l.1.09c.24.2.47.4.72.6.07.06.14.11.22.16.05.03.1.07.15.1.05.03.13.09.15.2.03.13.12.2.27.32.06.04.11.09.16.13.06.06.12.11.19.16.12.1.24.21.35.32.18.19.35.38.52.58.09.1.17.2.26.29.04.04.08.08.11.12.03.03.06.06.1.1l.27.29c.18.19.36.39.55.58.12.12.25.25.37.37.15.14.29.28.43.43.13.13.25.26.37.4.14.15.27.31.42.45.14.14.29.27.43.39.08.07.16.14.24.21.03.03.07.06.1.1.03.03.06.06.09.09.06.05.13.1.19.15l.27.2c.1.08.2.15.3.22.1.07.19.13.29.2l.17.12c.06.04.13.08.18.13l.03.03c.22.19.45.39.67.6.08.07.15.16.21.24.06.07.12.15.19.21.14.14.31.28.52.44.11.08.22.16.35.24l-.02-.12.26-.16.12.07.1.09c.06.05.12.1.18.15,0-.02,0-.03,0-.05l-.02-.21.2-.03c.08,0,.16-.01.23.03.16.09.29.17.41.26.05.04.1.08.15.13.04.04.08.08.12.11.05.03.11.06.17.09.05.02.1.05.14.07.39.22.78.44,1.17.66.05.03.09.06.12.1.1.1.23.17.37.24l.08.04c.08.04.15.09.23.14-.02-.02-.03-.03-.05-.05-.14-.12-.29-.25-.45-.36-.14-.1-.2-.25-.16-.42.02-.07.07-.12.14-.16.03-.02.08-.04.13-.04-.14-.11-.28-.29-.26-.42,0-.05.03-.2.17-.25.09-.03.23-.03.31.05.09.08.17.17.26.26l.33.35c.17.18.34.36.51.53l.16.17c.31.32.62.64.94.95.19.18.4.36.6.52l.37.32c.19.16.37.32.56.48.17.14.35.28.52.42l.4.32c.09.07.17.14.26.22.14.12.28.24.42.35.16.12.33.24.49.37.11.08.22.16.33.24.08.06.16.12.24.19.11.08.22.17.33.25.14.1.29.19.43.29.1.06.19.13.29.19.05.03.09.07.14.1.05.04.11.08.17.12.09.05.18.09.27.13.05.02.1.05.15.07.03.02.06.04.08.06l.28.22-.25.1c.09.04.17.09.26.13.03.02.07.03.1.04.06.02.12.04.17.07.08.04.11.11.14.15l.18.27-.31.05c-.09.01-.17.03-.25,0-.26-.12-.5-.28-.74-.49,0,0-.03-.02-.1-.04-.06-.02-.11-.03-.17-.04-.09-.02-.17-.04-.26-.07-.1-.03-.19-.1-.24-.18-.06.03-.12.06-.17.09.08.07.15.14.24.21.2.16.47.37.75.56.15.1.32.22.37.47.02.01.04.03.06.05.03.02.07.05.1.07l.39.32-.33.1c-.26.08-.44-.04-.55-.12l-.04-.03s-.05-.03-.07-.04c-.07-.04-.17-.1-.24-.19-.12-.03-.2-.1-.26-.15-.04-.03-.08-.06-.11-.07l-.21-.05.11-.3c-.19-.18-.38-.35-.57-.53-.07-.06-.13-.12-.2-.19-.16-.16-.31-.3-.48-.42-.1-.07-.22-.12-.36-.18-.09-.04-.19-.08-.28-.12-.22-.11-.43-.24-.64-.38-.08-.05-.12-.12-.15-.18-.01-.02-.02-.04-.03-.06-.02-.02-.03-.04-.05-.07-.06-.08-.08-.09-.11-.09-.03,0-.06,0-.09-.02l.1.22-.48-.24c-.14-.07-.26-.15-.39-.24,0,0-.02-.01-.03-.02l-.03.03s.06.06.08.1c.06.08.15.14.24.21.05.04.1.07.15.11.05.04.08.09.11.12.02.02.04.05.05.06.17.13.34.25.51.38l.21.15s.11.1.09.23l-.05.27-.34-.2s-.08.06-.11.07c-.05.02-.16.03-.29-.07-.08-.07-.15-.14-.23-.21l-.18-.17c-.09-.09-.18-.17-.26-.26-.03-.03-.05-.06-.08-.09-.03-.03-.05-.06-.08-.08-.02-.02-.04-.03-.06-.05-.04-.03-.08-.06-.12-.09-.09-.09-.18-.18-.27-.27l-.28-.28.08-.05s0-.01,0-.02c-.01-.02-.02-.05-.03-.08,0,0,0,0,0,0l-.06.05-.11-.12s-.07-.08-.1-.12c-.07-.08-.14-.16-.22-.22-.13-.11-.27-.21-.41-.31,0,.07,0,.15-.01.22l-.02.17c-.03.26-.05.53-.1.8-.08.48-.24.87-.47,1.21l-.11.16c-.13.19-.27.39-.43.56-.15.16-.41.21-.52.22-.15.01-.27.08-.42.16-.14.07-.25.08-.34.08h-.06c-.05,0-.11,0-.16,0-.05,0-.1,0-.15,0-.03,0-.07.01-.1.02-.07.02-.14.04-.23.03-.18,0-.31.02-.45.09-.09.04-.18.05-.25.05-.03,0-.09,0-.1.01-.15.1-.3.08-.41.07-.05,0-.09,0-.12,0-.16.02-.32.03-.47.03h-.18s-.11.02-.17-.02c-.11-.06-.23-.06-.38-.06-.08,0-.16,0-.24,0-.07,0-.13-.04-.17-.06l-.08-.04h-.03c-.25-.01-.48-.02-.72.03-.32.07-.65.05-1-.04-.04-.01-.1,0-.17,0-.05,0-.09,0-.14,0h-.44c-.28-.02-.57-.03-.85-.04-.09,0-.19.01-.28.02l-.19.02c-.17.02-.34.04-.51.06-.03.03-.05.05-.06.06-.05.05-.09.09-.16.12-.04.02-.05.03-.05.03.19.16.37.31.55.46l.06.05s.04,0,.06.01l.15.06-.04.16s0,.02.03.01c.15-.01.41.2.46.29.01.03.04.06.07.08.02.01.03.02.05.03.04.02.09.05.13.09.21.19.37.42.53.63l.11.15c.07.1.16.19.26.28.06.06.12.12.17.18l.18.21c.23.25.45.5.67.76.22.26.43.53.64.8.12.15.23.29.35.44.07.09.15.17.22.26l.21.24c.13.16.27.31.41.46.1.11.22.21.33.32.09.08.18.17.27.25.15.15.29.31.43.46.05.06.1.11.15.17.15.16.3.32.42.51.06.09.12.17.18.25.1.13.2.27.28.42.22.41.55.76.91,1.11.13.13.27.25.42.38.15.13.29.26.43.39.12.12.23.25.34.38.06.08.13.15.2.23.04.05.09.09.14.14.06.05.11.1.16.16.06.07.12.14.17.21.05.07.11.13.16.19.1.1.2.21.29.31.08.09.17.18.25.27l.11.12c.27.29.53.57.79.87.15.17.31.36.49.61.05.06.09.13.13.2.03.05.06.11.1.16.04.06.09.11.14.17.06.07.13.14.18.22.08.11.14.23.2.35l.02.04c.1.21.28.38.46.55l.11.1c.09.09.19.18.26.3.13.21.3.38.56.53.19.11.36.28.49.48,0,.01.05.05.16.09.18.06.27.17.3.35.01.07.03.14.05.2.03.11.07.23.07.35,0,.05.01.1.02.15.03.15.06.33-.04.54-.08.18-.1.39-.06.61.03.19.1.35.19.5.11.16.08.38.06.45-.01.07,0,.11.08.22.08.1.09.23.1.33,0,.03,0,.05,0,.07v.08s-.05.07-.05.07c-.05.06-.15.09-.22.09-1,0-2.01,0-3.01,0h-.04l-.19-.06v-.12c0-.24.09-.43.18-.6.03-.07.07-.14.09-.21.04-.12.03-.29.02-.43-.01-.14-.05-.29-.09-.44l-.02-.08c-.04-.14-.08-.27-.11-.41-.04-.15-.08-.29-.12-.44-.02-.08-.04-.17-.06-.25-.02-.11-.04-.22-.08-.32-.03-.1-.08-.19-.13-.3-.02-.03-.03-.06-.05-.09-.23-.09-.41-.25-.56-.39-.05-.04-.09-.09-.14-.13-.2-.17-.39-.34-.58-.52-.14-.13-.29-.26-.43-.39-.07-.06-.15-.11-.22-.17-.06-.04-.12-.08-.17-.12-.05-.04-.09-.08-.14-.12-.03-.03-.06-.05-.09-.08-.05-.04-.1-.09-.16-.13-.08-.06-.16-.13-.24-.2-.16-.14-.32-.28-.47-.42l-.29-.27c-.09-.08-.19-.17-.27-.25-.11-.11-.22-.22-.32-.33-.17-.17-.33-.34-.5-.51-.08-.07-.15-.15-.22-.23-.12-.14-.24-.27-.39-.36-.12-.08-.21-.18-.28-.28-.03-.04-.06-.08-.1-.12l-.26-.27c-.16-.17-.32-.34-.48-.52-.11-.12-.22-.25-.33-.37-.08-.09-.16-.19-.24-.28-.06-.04-.09-.06-.12-.09-.18-.18-.35-.37-.53-.55l-.3-.32c-.15-.16-.3-.32-.45-.47-.07-.08-.15-.15-.23-.23l-.41-.45c-.17-.18-.33-.37-.49-.56-.09-.1-.17-.21-.25-.32-.04-.06-.09-.12-.13-.18-.05-.07-.11-.14-.16-.21-.06-.08-.13-.16-.19-.25-.05-.06-.09-.12-.13-.19-.04-.06-.09-.12-.13-.18-.02-.02-.04-.04-.05-.06-.04-.04-.08-.07-.11-.12-.07-.1-.14-.2-.2-.29-.07-.11-.14-.22-.22-.32-.07-.09-.14-.18-.21-.28-.08-.1-.15-.2-.22-.3-.04-.06-.08-.13-.12-.2-.02-.04-.05-.09-.07-.13-.14-.22-.26-.4-.39-.58-.05-.07-.11-.14-.16-.21-.08-.09-.15-.19-.22-.29-.06-.09-.1-.18-.14-.27-.02-.05-.05-.1-.07-.15-.02-.03-.04-.06-.06-.08-.05-.07-.1-.14-.12-.24-.04-.15-.15-.25-.29-.37l-.08-.07c-.16-.13-.27-.26-.35-.39-.06-.1-.09-.2-.13-.29-.02-.06-.04-.12-.07-.17-.05-.1-.08-.12-.08-.12,0,0,0,0-.02.02,0,.01,0,.03,0,.04.02.1.01.16,0,.22-.03.12-.06.25-.11.37-.02.05-.04.09-.07.14-.02.03-.03.05-.04.08,0,0,0,.03,0,.05,0,.04,0,.09-.03.15-.03.1-.07.21-.15.3-.16.19-.28.4-.35.65-.03.1-.08.19-.13.28-.02.03-.04.07-.06.11l-.07.14c-.05.1-.1.2-.16.3-.06.1-.12.19-.19.28-.06.08-.11.16-.16.24-.04.07-.08.16-.11.24-.04.1-.07.2-.1.3-.06.19-.13.38-.2.57-.17.42-.42.8-.65,1.15-.15.23-.28.48-.41.75-.01.03-.02.07-.03.12-.01.08-.03.17-.08.25-.02.04-.04.09-.05.15-.02.08-.04.19-.11.29-.07.11-.12.24-.17.38-.02.06-.05.13-.07.19,0,0,0,.07-.06.13-.03.03-.03.04-.03.05,0,0,.01.04.06.09.05.05.1.1.14.16.19.2.36.4.59.53.12.06.3.16.32.38,0,0,.01.01.02.02l.14.16c.11.12.22.24.32.37.23.3.46.55.69.76.06.05.11.1.17.15.22.19.44.39.58.64.17.3.44.53.7.75l.04.03c.14.12.28.24.41.37.2.19.39.36.61.52.06.04.11.1.15.14l.81.87.02.06c.07.25.25.46.43.67.08.09.15.18.22.28.09.12.19.22.29.31.13.11.24.24.34.37.05.06.1.12.15.18.37.42.69.7,1.04.92.07.05.15.09.22.14.07.05.14.09.21.14.01,0,.04.01.06.02.04.01.1.03.15.07.19.13.27.41.19.68-.01.04-.02.08-.02.1,0,.22-.01.44-.02.66v.3c-.01.22-.16.36-.39.36-.34,0-.67,0-1.01,0ZM35.5,49.02h1.93c.33,0,.67,0,1,0l.02-.29c0-.22.01-.44.02-.66,0-.06.01-.13.04-.2.04-.11,0-.23-.04-.26,0,0-.04-.01-.06-.02-.04-.01-.09-.03-.13-.06-.02-.01-.04-.03-.06-.04l-.06.1c-.06.11-.14.17-.24.19-.09.02-.19,0-.28-.08l-.5-.37s.01.02.02.03l.04.09c.03.06.02.11.02.14,0,.27-.11.45-.33.58-.15.09-.28.19-.42.29-.15.11-.3.22-.47.32-.16.09-.33.17-.49.24ZM47.99,49.02c.91,0,1.81,0,2.72,0,0-.02,0-.04,0-.04-.11-.13-.21-.29-.16-.53.02-.08,0-.15,0-.17-.05-.08-.1-.16-.14-.25,0,0,0,.02-.01.02-.07.12-.21.14-.28.15-.19.03-.37.06-.56.1l-.28.05s-.03,0-.04,0l-.02.04h-.15s-.15-.04-.15-.04c-.1-.02-.21-.05-.32-.06-.16-.02-.26-.07-.33-.14,0,.12-.01.24-.05.35-.03.09-.07.17-.11.26-.04.09-.08.17-.11.25ZM22.55,48.96h.88c.42,0,.84,0,1.26.01.08,0,.16.01.25.02.07,0,.14.02.2.02.05,0,.11,0,.18-.01-.02-.07-.06-.14-.11-.21-.13-.2-.19-.44-.19-.72v-.04c0-.06,0-.14.02-.22-.09.06-.22.1-.38.03,0,0,0,0-.02.01-.04,0-.07,0-.11,0-.05,0-.1,0-.15,0-.14,0-.29,0-.43-.03-.03,0-.08-.02-.1-.02,0,0-.01.02-.04.05-.08.1-.19.19-.28.26-.06.05-.13.1-.2.14-.04.03-.08.06-.12.08-.03.02-.05.04-.08.06-.05.04-.11.1-.19.13-.18.09-.29.26-.4.44ZM1.13,47.92s.07,0,.11,0h.06c.31.04.63.07.94.15.22.05.42.05.61,0,.06-.02.11,0,.14,0,0,0,.02,0,.02,0,.06-.1.03-.19-.08-.38-.06-.11-.1-.25-.1-.39,0-.08.01-.17.02-.25,0-.07.02-.13.02-.2h0s-.03.09-.05.14c0,0,0,.02,0,.04,0,.02,0,.04,0,.07v.11s-.11.04-.11.04c-.39.17-.77.12-1.13.07h-.05c-.18-.03-.3-.09-.38-.19-.01-.02-.03-.04-.04-.06-.07.16-.19.28-.31.39-.03.03-.06.06-.09.09-.1.11-.21.24-.32.39.14.03.27.06.4.03.12-.03.22-.04.32-.04ZM.35,48.01s0,0,0,0c0,0,0,0,0,0ZM48.15,46.05c.07.15.13.32.16.52.04.33.09.69.18,1.15q.03.19.16.2c.12.01.23.04.35.06h.06s.08,0,.08,0c.03,0,.05,0,.08,0l.28-.05c.18-.03.37-.07.55-.1-.05-.19-.03-.36,0-.52,0-.05.01-.11.02-.16.01-.16.05-.31.1-.46v-.05c.06-.16,0-.32-.05-.51v-.03s-.06,0-.06,0c-.14-.03-.28-.05-.41-.06-.3-.02-.63-.02-1.01-.02-.15,0-.3.01-.45.02ZM.28,47.91h0s0,0,0,0ZM24.69,47.46s.08,0,.12.02c.02,0,.03.01.1-.06.09-.09.17-.19.25-.3-.11-.05-.2-.06-.31-.06-.3,0-.52-.03-.73-.12-.01,0-.02,0-.03-.01,0,0,0,.02-.01.03-.05.11-.09.22-.13.33l-.05.13s.08.01.12.02c.11.02.23.02.36.03.05,0,.1,0,.16,0,.01,0,.03,0,.04,0,.03,0,.06,0,.09,0ZM37.09,47.24s0,.01,0,.02l.15-.13c.07-.06.15-.12.25-.13-.04-.03-.09-.07-.13-.11l-.28.34ZM1.9,45.71s-.16,0-.22.03c-.06.03-.13.1-.16.3v.08c-.03.2-.05.4-.08.6-.02.13,0,.16,0,.16,0,0,.04.03.13.04h.05c.29.04.57.08.83,0,0-.03,0-.05.02-.08.08-.21.12-.43.13-.75,0-.26-.03-.32-.26-.34h-.12c-.1-.03-.21-.04-.31-.04h-.01ZM47.84,46.27c.01.07.03.14.05.21.02.07.04.14.06.21,0-.03,0-.06,0-.08-.01-.12-.05-.23-.09-.34ZM24.29,46.4c.06.03.1.04.15.05.17.02.35.04.53.06.16.02.31.03.47.05l.13.04s0,0,0,0l-.1-.04c.07-.17.14-.33.21-.5.08-.2.16-.39.25-.58.14-.32.28-.65.44-.96.09-.19.19-.38.29-.57.07-.14.14-.28.22-.41.06-.12.11-.24.17-.38.01-.04.02-.08.03-.13.02-.07.03-.14.06-.21.05-.11.1-.21.15-.31.06-.12.12-.23.17-.35.08-.2.16-.4.24-.61.09-.23.18-.46.27-.69l.05-.12c.12-.29.24-.59.42-.86.09-.14.15-.29.21-.45.08-.18.15-.37.28-.55.05-.07.08-.16.12-.26l.03-.09s.01-.05.02-.08c.01-.05.02-.11.05-.17.04-.07.08-.15.12-.22.03-.06.07-.12.1-.18l.03-.05c.1-.21.2-.43.29-.64.05-.14.1-.28.14-.42.03-.11.07-.21.1-.32.1-.29.22-.52.36-.7.17-.22.35-.48.49-.77.03-.08.07-.15.11-.22.09-.18.18-.36.22-.53.05-.2.12-.38.21-.59l.03-.07c.05-.13.11-.26.2-.37.17-.22.3-.48.4-.82.06-.19.15-.35.24-.48.11-.15.2-.33.28-.52.07-.17.12-.35.18-.53l.06-.21c.03-.1.05-.21.09-.31-.03.05-.07.1-.11.15l-.06.08c-.17.22-.32.44-.41.68-.03.1-.09.18-.14.25-.02.03-.03.05-.05.08l-.09.15c-.06.1-.13.2-.18.31-.01.03-.02.07-.03.12-.01.07-.03.14-.07.21-.04.08-.11.15-.17.21-.02.02-.04.04-.06.07l-.03.07c-.1.21-.2.43-.4.61-.03.02-.05.06-.08.11-.12.23-.24.47-.36.7-.03.06-.06.13-.09.19l-.1.2c-.05.1-.09.19-.15.28-.05.09-.11.19-.17.28-.06.09-.11.19-.17.28-.04.08-.08.16-.12.24l-.12.23c-.04.08-.08.15-.12.24-.1.23-.2.46-.29.7-.04.11-.11.19-.16.27-.09.11-.13.18-.13.27,0,.12-.08.19-.11.21-.14.1-.2.26-.27.47l-.03.1c-.06.19-.13.38-.25.56-.11.17-.22.36-.31.54l-.08.15s-.03.07-.05.1c-.02.06-.05.12-.08.17-.06.1-.13.2-.2.3-.06.09-.12.19-.18.28-.07.12-.13.24-.2.36-.1.19-.2.4-.34.58l-.04.09c-.05.09-.09.18-.14.26l-.53.96c-.03.06-.06.12-.12.16-.11.08-.17.2-.24.35-.02.05-.05.1-.07.15-.02.04-.04.07-.05.11-.02.04-.04.08-.06.12-.03.06-.07.12-.1.18-.06.11-.13.22-.17.32-.06.16-.12.33-.17.49-.06.17-.12.34-.18.51-.06.16-.14.32-.22.48-.06.12-.12.25-.17.37-.1.23-.18.45-.27.72ZM36.53,46.18s0,0,0,0c0,0,0,0,0,0ZM50.12,46.13s0,0,0,0h0ZM1.24,45.5c-.01.05-.03.11-.04.16-.04.14-.05.29-.05.46v-.03s.01-.08.01-.08c.03-.24.11-.42.26-.53l-.19.02ZM50.06,46.07s0,0,0,0h0ZM47.65,45.65c.03.06.06.12.08.19,0,0,0-.01,0-.02.02-.04.09-.12.23-.13h.07s.05,0,.07-.01h-.25c-.07-.02-.14-.02-.22-.03ZM49.92,45.71c.06,0,.11.02.17.03l.1.02s.03,0,.05.01c0-.03-.01-.03-.01-.03h0s0,0-.04-.02c-.05-.02-.1-.04-.16-.07h0s-.1.06-.1.06ZM47.27,45.64s0,0,0,0c0,0,0,0,0,0ZM2.71,45.47c.08.04.13.09.17.15.02-.05.04-.11.06-.16-.07.01-.16,0-.23,0ZM33.91,29.48s-.02.04-.03.06c-.01.03-.02.05-.03.08-.01.05-.02.1-.06.15.08.1.14.2.2.3.02.05.04.09.06.14.02.04.03.08.05.11.01.02.03.05.05.07.05.06.1.13.12.22,0,.02,0,.02.03.02.21,0,.36.14.41.33.07.33.24.65.52.95.09.1.15.18.2.26.05.09.11.18.16.28.05.09.1.18.16.28.01.02.03.04.06.07.05.05.11.12.14.21.04.14.14.27.23.41.06.08.11.16.16.24.1.18.23.34.36.52l.25.34c.16.23.33.46.5.68.1.13.2.25.31.38.06.08.13.15.19.23.06.07.11.14.17.21.09.12.19.24.29.36.19.21.38.42.58.64.12.13.24.26.36.39.07.07.13.15.2.23.07.08.14.17.22.25.04.04.08.08.12.11.05.05.1.09.15.14.1.11.2.22.3.34.11.13.22.25.34.38.09.1.19.19.28.29.09.09.17.17.25.26.11.11.21.23.31.34.14.16.29.32.44.47.16.17.33.34.5.5l.28.27c.07.07.15.15.22.22l.19.2c.05.05.11.1.16.16l.28.28c.07.08.15.15.23.22.18.17.36.33.55.5.3.27.6.53.91.79.13.11.27.22.41.33.1.08.2.16.3.24.13.11.27.22.4.33.14.12.28.24.43.36.25.21.51.42.77.62.02.02.04.03.04.03.08,0,.18.01.27.02l.55.03c.27.02.53.04.8.05.05,0,.09,0,.14,0,0,0,0,0,0,0-.16-.15-.32-.32-.47-.48l-.14-.15c-.05-.05-.09-.1-.14-.16-.09-.1-.17-.19-.26-.26-.2-.15-.32-.33-.41-.49-.02-.03-.04-.07-.05-.1-.04-.07-.07-.15-.11-.18-.21-.16-.36-.35-.47-.61-.06-.13-.15-.21-.28-.23-.16-.03-.21-.21-.22-.26-.01-.05-.02-.1-.02-.15,0-.03,0-.08-.01-.09-.16-.29-.3-.53-.52-.72-.1-.08-.2-.18-.3-.29-.12-.13-.24-.26-.36-.39-.11-.12-.22-.25-.33-.37-.1-.11-.2-.21-.29-.31-.13-.14-.26-.27-.38-.41-.06-.07-.11-.13-.17-.2-.07-.08-.13-.17-.21-.24-.26-.26-.53-.52-.82-.76-.31-.25-.56-.55-.8-.84-.08-.1-.17-.2-.25-.3-.04-.04-.07-.1-.1-.15-.07-.11-.09-.14-.15-.15-.12-.02-.18-.13-.2-.18-.02-.05-.04-.11-.06-.16-.03-.09-.06-.18-.11-.24-.26-.34-.53-.67-.81-.99-.29-.33-.61-.69-.97-1.02-.23-.21-.43-.46-.61-.69-.1-.12-.2-.25-.3-.37l-.19-.21c-.28-.32-.54-.62-.85-.88-.05-.05-.09-.1-.11-.14l-.02-.03s-.06-.09-.09-.13c-.05-.08-.11-.16-.17-.24-.18-.21-.37-.42-.56-.63l-.22-.24s-.06-.08-.1-.11c-.06-.08-.12-.15-.19-.2-.14-.1-.26-.22-.37-.34-.13-.13-.26-.26-.4-.35-.15-.09-.29-.2-.43-.3l-.1-.07s-.07-.06-.1-.09l-.03-.03s-.06-.06-.09-.1c-.06-.06-.12-.13-.18-.18-.07-.05-.15-.1-.23-.15-.01,0-.03-.02-.04-.02h-.02c-.09.06-.18.11-.26.16-.04.02-.07.06-.11.1-.07.07-.15.15-.26.2ZM1.75,45.07c.17,0,.34,0,.51,0,.09,0,.17,0,.26,0,.12,0,.23,0,.35.01,0,0,.01,0,.02-.02l.31-.3c.28-.27.56-.54.83-.82.41-.42.79-.85,1.21-1.32.14-.16.27-.32.4-.48.07-.08.14-.17.2-.25.29-.34.63-.75,1.03-1.11.24-.22.45-.49.65-.75.11-.14.21-.29.31-.44.06-.09.11-.17.17-.26.04-.06.08-.11.13-.17.04-.05.07-.09.11-.14.03-.04.05-.08.08-.12.03-.05.06-.1.09-.14.02-.03.06-.07.09-.1.01-.01.02-.02.03-.03.06-.07.12-.14.18-.21.13-.16.26-.32.4-.47.11-.12.24-.21.36-.31.07-.05.13-.1.2-.16.15-.13.3-.26.45-.39l.16-.14s.04-.05.05-.06l.03-.03s.08-.09.13-.13c.03-.03.07-.05.11-.07.03-.02.06-.03.08-.06.08-.07.16-.15.23-.22.09-.09.18-.18.28-.26.28-.25.57-.5.86-.76l.07-.06c.19-.17.38-.33.57-.49l.14-.12c.08-.07.16-.14.25-.21.14-.1.28-.19.42-.29.18-.12.35-.24.52-.36.21-.15.42-.32.62-.49l.13-.11c.08-.06.15-.12.23-.19.12-.1.23-.2.35-.29.12-.09.24-.17.36-.25.09-.06.19-.13.28-.2.17-.12.34-.25.48-.38.07-.06.14-.1.2-.12.07-.03.1-.05.13-.08.08-.12.19-.21.29-.3.06-.05.11-.1.16-.15.1-.11.2-.22.3-.34.1-.11.19-.22.29-.33.12-.12.24-.24.37-.35l.08-.07s.06-.05.1-.07c.02,0,.04-.02.04-.03.06-.09.08-.2.09-.33-.05,0-.11,0-.17-.01h-.08s-.08-.01-.09,0c-.17.08-.34.07-.48.07-.06,0-.11,0-.17,0h-.04c-.08.01-.19.03-.29-.03-.05-.03-.12-.03-.22-.03-.05,0-.1,0-.15,0-.01.02-.03.05-.04.07-.06.1-.11.19-.13.28-.05.24-.21.38-.34.51-.06.05-.11.1-.16.16-.1.14-.23.25-.36.35-.09.08-.18.15-.25.23-.15.16-.28.33-.42.5-.11.14-.22.27-.33.4-.18.21-.39.44-.62.66-.13.11-.28.2-.42.29-.05.03-.1.06-.14.09l-.05.03s-.04.02-.05.03c.01.08-.06.16-.18.21-.04.01-.08.03-.12.04-.06.02-.11.03-.15.05-.1.06-.18.13-.27.19l-.28.22c-.2.15-.39.3-.58.46-.05.04-.1.08-.15.12-.13.1-.24.18-.3.3-.04.1-.13.13-.19.16-.06.03-.11.05-.15.06-.06.02-.12.05-.17.08-.21.16-.42.33-.62.49-.16.13-.32.27-.47.41l-.35.3s-.09.08-.13.13c-.11.13-.25.28-.49.33l-.31.2c-.24.16-.48.31-.72.47-.4.26-.71.6-.98.93-.09.12-.19.23-.29.34l-.29.33c-.13.15-.26.3-.39.46-.08.1-.16.2-.24.3-.09.11-.17.22-.26.33-.04.05-.09.09-.14.12-.02.02-.05.04-.07.06-.11.12-.22.24-.32.37-.09.12-.18.25-.27.38l-.15.21s-.05.06-.08.08c-.03.03-.06.05-.08.07-.02.02-.06.05-.06.06-.05.09-.09.18-.13.27-.02.06-.05.11-.08.17-.04.09-.1.15-.16.17-.09.04-.14.11-.22.22-.02.03-.04.06-.07.09-.08.11-.17.23-.25.34-.07.09-.13.19-.2.28-.3.4-.59.8-.89,1.2-.07.1-.14.19-.22.29-.07.09-.14.18-.2.27-.05.06-.1.11-.15.16.02,0,.04,0,.05,0ZM32.95,42.48s.02.02.03.03c.05.04.1.08.14.13.06.06.11.12.16.19.05.06.1.12.15.18.18.2.37.39.56.58.16.16.32.32.48.48.08.07.16.14.25.21.18.14.36.29.5.49.01.02.04.05.07.07.02.02.04.04.06.06h0c-.1-.2-.24-.37-.39-.55l-.09-.11c-.05-.06-.09-.11-.13-.17-.14-.19-.28-.36-.46-.49-.07-.05-.13-.11-.19-.17-.08-.08-.15-.15-.25-.19-.06-.02-.1-.06-.13-.09l-.58-.55s-.03-.02-.03-.03c-.06-.02-.11-.05-.16-.08ZM33.88,43v.02s0-.02,0-.02c0,0,0,0,0,0ZM47.17,42.39s.03,0,.04.01c0,0,0,0,0,0-.01-.02-.03-.04-.04-.05,0,.02,0,.03,0,.05ZM47.09,42.37s0,0,0,0c0,0,0,0,0,0ZM29.42,39.06s.05.04.07.04c.04.03.07.06.1.08l.13.12c.06.06.12.12.19.18.06.06.13.12.19.17.13.11.25.22.37.35.11.11.21.23.32.35.08.1.17.19.25.29.3.32.55.57.79.81.13.13.27.25.41.38.08.07.17.15.25.22.06.05.11.1.16.15-.02-.03-.05-.06-.07-.09-.07-.09-.13-.17-.21-.23-.11-.1-.2-.21-.28-.33-.04-.06-.09-.12-.14-.18-.05-.06-.11-.11-.16-.16-.05-.04-.09-.09-.14-.13-.14-.15-.28-.3-.41-.45l-.24-.27c-.14-.16-.29-.32-.43-.48-.04-.04-.08-.09-.11-.14-.09-.12-.15-.19-.26-.21-.08-.01-.13-.06-.15-.09l-.42-.39s-.03-.03-.05-.05c-.03-.03-.06-.05-.09-.08l-.04.06s-.02.04-.02.06ZM3.68,41.9v.02s.02-.02.04-.02c0-.02.01-.03.02-.05-.02.02-.04.04-.06.05ZM6.7,41.76s0,0,0,0t0,0ZM29.47,38.46l.13.1s0,0-.01-.01c-.04-.04-.07-.09-.1-.13,0,0,0,0,0,.01,0,0,0,.02-.01.03ZM28.08,38.1s.02.02.02.03c0,0,0-.02.01-.03-.01,0-.02,0-.03,0ZM19.74,29.8l.56.48c.15.13.3.25.44.38.08.07.15.14.23.21.08.08.17.15.25.23.08.07.15.13.23.19.11.09.21.17.31.26.09.09.18.18.27.27.05.05.09.1.14.15.22.22.43.44.65.67l.11.11c.14.14.28.28.42.42.07.06.14.13.21.19.08.07.16.14.23.21.08.07.15.15.22.23.08.08.15.16.23.24.18.17.36.33.54.5.13.12.27.24.4.37.04.04.07.08.1.12.02.02.03.04.05.06.1.1.2.21.3.31l.16.16c.06.06.12.12.17.18.04.04.08.09.12.13.07.08.14.16.22.24.08.08.17.16.26.24.12.11.24.22.35.33.05.05.09.1.13.15.07.09.14.17.23.22.09.04.16.08.22.13l.11.1c.17.16.33.31.52.42v-.03c.07-.1.12-.2.16-.31-.06-.08-.13-.14-.2-.19-.08-.06-.18-.14-.26-.23-.1-.12-.23-.23-.37-.34-.06-.05-.12-.1-.18-.15-.05-.04-.1-.08-.14-.12-.1-.08-.21-.17-.3-.26-.11-.11-.21-.22-.31-.33-.09-.11-.19-.21-.29-.31-.11-.11-.22-.21-.33-.32-.13-.12-.26-.24-.38-.37-.07-.08-.14-.16-.2-.24-.07-.09-.13-.18-.21-.25-.18-.17-.37-.35-.5-.59l-.04-.03c-.05-.05-.1-.09-.15-.13-.12-.1-.23-.2-.34-.31-.12-.13-.24-.25-.4-.31-.08-.03-.13-.09-.17-.13-.05-.06-.09-.12-.13-.18-.08-.11-.16-.22-.25-.31-.16-.16-.35-.31-.53-.46l-.14-.12s-.06-.04-.09-.06c-.05-.03-.1-.06-.14-.09-.08-.07-.16-.14-.24-.21-.15-.13-.28-.26-.44-.35-.23-.14-.43-.31-.62-.48-.08-.07-.16-.14-.25-.21-.12-.1-.22-.21-.32-.31-.01-.01-.02-.03-.04-.04h0c-.07.04-.26.14-.45-.05-.04-.04-.07-.05-.13-.06ZM20.97,29.76s.05.03.07.05c.22.17.44.35.66.53l.42.34s.09.07.14.11c.04.04.09.07.13.11.07.06.13.11.2.17.06.05.13.09.2.14.12.08.24.16.35.26.1.09.19.19.27.29.06.08.13.15.2.22.11.11.23.2.35.3.08.06.16.13.23.2.04.04.07.08.09.11,0,.01.01.02.02.03.22.15.5.36.71.67.04.06.08.1.12.16l.66.76s.07.08.1.13c.05.07.1.13.16.19.08.08.17.16.26.24.08.07.17.15.25.23.14.13.27.27.41.4.16.16.32.31.48.47.15.14.31.28.46.42l.22.2s.05.04.07.07l.07.07c.07.06.13.12.19.19.02.03.04.04.06.05,0,0,.01-.02.02-.05.06-.13.13-.26.19-.39.07-.15.14-.29.21-.44.14-.29.29-.58.44-.88l.15-.3c.05-.09.1-.18.14-.28.03-.07.06-.14.09-.21.05-.12.1-.24.16-.36.18-.32.38-.64.57-.96l.26-.44s.06-.1.09-.15l.15-.29c.08-.16.16-.31.25-.47.1-.19.21-.37.32-.56l.44-.76c.05-.08.09-.16.14-.24l.05-.09c.07-.12.14-.23.17-.35.01-.04.03-.08.04-.11-.05,0-.1,0-.15,0-.08,0-.15-.01-.22-.04-.04-.02-.09-.04-.13-.06-.04-.02-.08-.04-.12-.06-.09-.03-.18-.05-.27-.07-.1-.03-.2-.05-.3-.08-.09-.03-.16-.09-.2-.14l-.09-.09c-.12-.12-.22-.22-.37-.24-.39-.07-.78-.05-1.16-.03-.33.02-.65.05-.98.08h-.14c-.41.05-.82.09-1.22.14-.12.01-.24.03-.37.05-.12.02-.25.04-.37.05-.29.03-.58.06-.86.08-.18.02-.36.03-.54.04l-.62.05c-.3.02-.61.05-.91.07-.09,0-.18.02-.26.03-.15.02-.3.04-.45.04-.39,0-.75.01-1.1.09-.06.01-.11.01-.16.02-.03,0-.07,0-.09,0-.04.01-.09.02-.13.04-.14.03-.19.05-.22.12-.01.03-.03.06-.05.08ZM13.15,33.33h0s0,0,0,0ZM13.19,33.18s-.08.05-.11.07c0,0,.02,0,.02,0,.02,0,.04-.01.06-.02,0-.02.01-.03.02-.05ZM34.34,31.01h.02s0,0-.02,0ZM18.74,30.32s-.01.02-.02.02c0,0,0,0,.01,0v-.02ZM32.98,29.92s-.02.05-.03.07c.01-.02.03-.03.04-.05,0,0-.01-.01-.01-.02ZM33.27,29.26s.05.06.06.1c.02.07,0,.15-.04.22-.05.08-.03.09,0,.12.08.07.1.14.11.2.02,0,.04,0,.06,0-.07-.16-.02-.28.04-.36,0-.02,0-.06.03-.1,0-.01.01-.03.02-.05.02-.05.05-.11.09-.16-.08.02-.16.03-.23.04-.06,0-.1,0-.13,0ZM16.74,29.75h0,0ZM18.89,29.57s.03.07.03.12v.03s.04-.06.06-.08l-.09-.07ZM16.87,29.7s0,0,0,0c0,0,0,0,0,0ZM18.54,29.68s0,0,0,0c0,0,0,0,0,0ZM20.1,29.56s.02.02.03.03c0,0,.01,0,.02,0l.03-.02s-.05,0-.08,0ZM20.66,29.47s.02.02.03.02c0-.01.02-.03.03-.04-.02,0-.04.01-.06.02ZM16.65,29.38s.01.02.01.02c.01,0,.02-.01.03-.01-.02,0-.03,0-.05,0ZM19.42,29.14s.04,0,.05,0c.12,0,.25.02.37.03.08,0,.15.02.23.02.19.01.38-.04.57-.1h.04c.27-.09.53-.17.81-.21.18-.02.37-.03.54-.03.11,0,.22,0,.32-.01.27-.02.55-.04.82-.06.25-.02.5-.04.74-.05.2-.01.4-.02.6-.03.26-.01.52-.03.78-.05.26-.02.52-.05.77-.08l.74-.08c.27-.03.55-.06.82-.09.21-.02.42-.04.63-.05.15-.01.3-.02.45-.03.33-.03.66-.06.99-.09.04,0,.08-.01.13-.02.09-.02.2-.05.32-.03.1.02.21.02.31.03.27.02.56.05.83.18.07.03.19.1.28.23.04.06.09.09.17.11.08.02.15.05.23.08.06.02.11.05.17.06.08.02.18.03.27.04.06-.01.11-.02.16-.02.06,0,.12.01.18.02.13.02.24.04.34,0,.07-.03.14-.02.19-.01.01,0,.03,0,.04,0,.2-.02.32-.04.39-.14.1-.14.22-.31.43-.41-.02-.05-.02-.11,0-.17.08-.27.28-.43.55-.44.08,0,.17,0,.25,0l.33.02-.02.09c.07.03.11.07.14.12,0,0,.03,0,.06,0,.03,0,.05,0,.08,0,.02,0,.08.01.1,0,.07-.12.21-.13.28-.13.11,0,.22.01.33.02.13,0,.26.01.39.02.05,0,.11,0,.17-.02.13-.02.29-.04.46.03.03.01.08.02.18-.02.08-.04.17-.03.23-.03.09.01.18.02.27.03.14.02.28.04.42.05.11,0,.21,0,.32,0h.21c.05,0,.11,0,.16,0,.04,0,.08,0,.12.01.18.02.29.03.4-.05.08-.07.19-.06.24-.06.06,0,.08,0,.08,0,.09-.16.23-.24.34-.3.17-.09.54-.12.67.06.1.13.21.28.3.43.12-.06.24-.04.37-.03.14,0,.28,0,.42,0,.07,0,.15-.02.24-.05.04-.01.08-.02.12-.03.03,0,.05-.01.08-.02.07-.02.13-.04.2-.04.09,0,.18-.01.26-.02.11,0,.22-.01.33-.03.3-.04.48-.08.61-.25.04-.05.09-.08.12-.1l.1-.07.1.06s.06.04.08.06h0c.11-.05.23-.1.29-.17.16-.2.31-.44.47-.74.05-.09.08-.19.11-.3.03-.11.07-.23.12-.34.08-.17.11-.35.13-.55,0-.07.02-.14.03-.21,0-.04.01-.08.02-.13.01-.06.03-.13.03-.19,0-.09,0-.18,0-.27-.02-.2-.03-.22-.09-.24-.08-.03-.14-.07-.19-.11l-.2-.13.05-.09-.11-.05.19-.13s-.03-.03-.05-.04c-.04-.03-.08-.06-.11-.1-.05-.05-.09-.1-.13-.14l-.17.11-.21-.31-.33-.25h0s-.03-.03-.05-.05c0,0,0,0,0,0-.04.08-.13.19-.26.18-.09,0-.23-.03-.34-.1-.12-.08-.25-.16-.37-.24-.06-.05-.13-.09-.2-.13-.02-.01-.03-.02-.05-.03-.04-.02-.08-.04-.13-.07-.04-.03-.08-.07-.12-.11-.04-.04-.08-.08-.12-.11-.16-.1-.34-.2-.51-.29l-.13-.07c-.07-.04-.14-.08-.22-.12l.02.05-.33-.06s-.05-.01-.08-.02c-.04-.01-.08-.02-.11-.02-.12.01-.28,0-.33-.22-.03-.12-.09-.19-.2-.24-.09-.04-.15-.11-.19-.17-.01-.02-.03-.03-.04-.05l-.19-.21.2-.07s-.09-.09-.13-.14c-.03-.04-.07-.08-.1-.12-.02,0-.04-.02-.06-.03-.04-.03-.09-.07-.13-.1-.17-.12-.38-.26-.45-.53-.04-.03-.07-.05-.1-.07-.07-.05-.15-.1-.22-.17-.09-.09-.17-.18-.25-.27-.06-.07-.11-.13-.17-.2-.02-.02-.05-.04-.08-.06-.04-.03-.07-.05-.11-.08-.05-.04-.09-.09-.14-.13-.06-.06-.12-.12-.19-.17-.24-.19-.49-.37-.74-.56l-.18-.13c-.07-.05-.14-.1-.21-.15-.13-.1-.27-.19-.4-.29-.09-.07-.17-.15-.25-.23-.08-.08-.16-.16-.25-.22-.18-.14-.33-.31-.48-.47-.08-.09-.15-.17-.23-.25-.43-.43-.84-.86-1.26-1.3l-.18-.19c-.12-.12-.23-.26-.34-.39-.07-.08-.11-.13-.15-.18-.06-.08-.12-.16-.19-.23-.08-.08-.18-.19-.29-.23-.09-.04-.2-.06-.31-.09-.12-.02-.23-.05-.35-.1-.21.08-.35-.08-.4-.14l-.03-.03s-.09-.08-.15-.12c-.08-.05-.17-.1-.26-.15l-.48-.28.27-.09s-.04-.1-.04-.16c0,0-.03-.03-.05-.04l-.05-.04s-.04-.03-.06-.04c-.06-.04-.14-.08-.19-.16-.01-.02-.02-.03-.09-.04-.13-.02-.23-.11-.29-.18-.06-.08-.08-.17-.06-.25.02-.08.09-.14.15-.17,0,0,0-.01,0-.02l-.15-.14.15.05s0-.04.02-.06l-.04-.02s-.09-.06-.13-.09l-.13-.11c-.32-.28-.64-.56-.95-.84-.19-.17-.38-.35-.56-.53-.07-.07-.14-.15-.2-.22l-.25-.28.12-.06-.8-.92.06-.09-.1-.15c-.08-.13-.17-.26-.26-.39,0-.01-.02-.02-.03-.04-.03-.03-.07-.07-.1-.13l-.03-.06c-.06-.12-.08-.15-.14-.16-.11-.02-.17-.11-.19-.15-.05-.08-.1-.17-.14-.26-.09-.16-.18-.32-.28-.48-.06-.09-.14-.18-.22-.27l-.26.16-.13-.12-.1-.14-.12.22-.13-.41s-.01-.05-.02-.07c-.04-.06-.09-.11-.13-.16l-.29.1-.12-.15-.03-.08c-.04-.11-.08-.22-.12-.33-.02-.06-.02-.12.01-.18l-.53-.54.09-.13c.05-.08.12-.16.21-.19l.09-.07s.02-.01.03-.02c-.03-.05-.07-.09-.11-.13-.2-.2-.33-.39-.39-.58-.05-.15-.14-.26-.26-.39-.02.01-.03.03-.05.04-.14.12-.27.23-.38.35-.14.16-.31.28-.55.39-.13.06-.16.09-.16.1,0,0,0,.03.04.14.03.07.07.13.1.2.04.07.08.14.11.21.07.15.14.31.21.47.09.21.18.42.28.63.16.33.33.65.5.97l.05.09c.07.14.15.27.23.4l.16.27c.11.18.22.37.33.55.02.03.05.06.09.1.04.04.08.08.11.12.05.07.1.14.15.21.07.1.13.2.21.29.04.05.08.09.12.14.15.16.31.34.38.59,0-.03-.02-.04-.02-.04l-.02.04s.01.02.02.03l.03-.03c.05.06.11.11.16.16.12.12.25.25.36.4.24.33.46.67.68,1.01l.22.34s.05.09.06.12l.06.13-.14.14-.13.09-.13-.1s-.04-.04-.06-.05c-.05-.05-.12-.1-.17-.17-.08-.11-.16-.23-.24-.34-.08-.13-.17-.25-.26-.37-.14-.2-.29-.39-.45-.58l-.2-.25s-.08-.09-.08-.17c0-.05-.03-.09-.11-.17-.03-.03-.07-.07-.09-.11-.1-.13-.21-.25-.33-.37-.14-.14-.28-.29-.4-.46-.03-.04-.06-.08-.1-.12-.06-.06-.11-.13-.16-.2-.05-.07-.08-.15-.12-.23-.02-.05-.05-.11-.08-.16-.04-.07-.09-.14-.13-.21-.04-.07-.09-.14-.13-.2-.06-.1-.12-.21-.17-.32l-.1-.19s-.03-.05-.04-.07c-.03-.04-.05-.08-.07-.12l-.16-.32c-.06-.12-.12-.25-.18-.37-.01-.02-.03-.04-.04-.06-.03-.04-.05-.08-.07-.12-.06-.11-.11-.22-.16-.33-.06-.12-.12-.24-.18-.36l-.05-.1c-.09-.17-.17-.33-.26-.48-.04-.07-.08-.14-.12-.21-.06-.12-.11-.23-.21-.29-.1-.07-.15-.19-.14-.32.01-.13.09-.23.2-.28l.12-.05c.09-.04.17-.08.25-.12l.06-.03c.11-.05.21-.1.28-.17.18-.15.36-.31.54-.47l.11-.1s-.03-.04-.04-.05c-.03-.03-.07-.06-.11-.08-.04-.03-.08-.05-.12-.08-.12-.09-.24-.19-.21-.34,0-.04,0-.1,0-.16-.02-.1-.03-.24.02-.37,0,0,0,0,0-.01,0-.07-.01-.12,0-.19.03-.18.02-.32-.05-.44-.03-.06-.07-.13-.08-.22,0-.04,0-.07-.12-.11-.24-.08-.48-.05-.75,0,0,0,0,0,0,0,0,.01,0,.04,0,.06,0,.04.01.09,0,.14,0,.05-.01.09-.03.14,0,.03-.02.07-.02.08.01.1.04.2.06.3.01.05.03.11.04.16.01.05.05.09.15.15.15.1.24.25.25.38,0,.09-.03.18-.09.24l-.04.04c-.09.09-.23.23-.47.2-.06,0-.12,0-.16.02-.2.09-.4.2-.63.32-.35.2-.69.4-1.04.6l-.22.13c-.34.2-.69.4-1.03.61-.37.23-.67.42-.94.61-.14.1-.27.2-.41.31-.12.1-.25.19-.37.28-.09.06-.19.12-.28.18-.13.07-.24.15-.34.23-.22.19-.42.38-.63.58-.13.12-.25.24-.38.36-.06.06-.13.09-.19.11-.02,0-.04.02-.06.03l-.04.02-.13.09c-.14.1-.28.21-.41.32-.06.05-.12.11-.17.17l-.09.09s-.07.07-.13.09c-.19.05-.32.2-.46.36l-.04.04c-.06.07-.13.15-.24.19-.17.06-.3.13-.4.25-.13.15-.27.3-.41.43l-.08.08c-.12.12-.22.24-.33.36-.2.23-.41.48-.68.67-.05.04-.11.05-.15.06l-.11.07c-.23.17-.47.34-.69.52-.08.07-.15.14-.23.2-.18.17-.37.35-.63.48-.14.07-.27.18-.41.29-.08.07-.16.13-.25.19.03.04.05.07.07.1.02.03.04.06.06.09.12.15.24.3.36.44.07.08.13.17.18.26.07.11.13.21.22.29.12.09.19.22.26.32.02.03.04.06.06.09.04.06.08.13.11.19.02,0,.05,0,.07,0,.14-.01.27-.03.41,0l.13.02c.25.04.53.09.77.28.03.03.07.05.1.07.1.07.21.14.28.26.09.13.14.33.13.53,0,.12-.04.24-.08.34-.02.04-.03.09-.05.13l-.08.28-.22-.2s-.09.03-.13.05c-.02,0-.03,0-.04.01,0,0,0,.01.01.02.01.02.03.04.04.06.03.06.06.11.08.16.05.09.09.19.15.27.15.22.31.44.49.67.06.07.11.16.13.27.02,0,.03-.02.05-.03.06-.03.12-.06.18-.08.11-.04.22-.08.33-.12.17-.06.34-.12.51-.19.23-.1.45-.22.67-.34l.07-.04c.2-.11.39-.21.59-.32l.46-.25c.11-.06.21-.11.31-.18.16-.1.33-.21.49-.31.16-.1.32-.21.48-.31.04-.03.18-.11.33-.06.14.05.2.19.23.3l.07.24h-.25s0,0,0,0c-.09,0-.16.03-.23.18-.04.08-.11.12-.15.15l-.29.16c-.14.08-.27.15-.41.23-.22.13-.44.26-.66.39l-.21.13c-.07.04-.14.08-.21.12-.24.14-.48.28-.72.41l-.11.06c-.13.08-.27.16-.43.21-.22.07-.45.13-.67.18,0,.01.02.02.03.03.04.05.08.09.12.14.06.08.12.15.18.21.04.03.09.07.14.05.15-.06.29-.12.44-.18l.32-.13c.13-.05.25-.13.38-.21.13-.09.27-.17.43-.24.14-.06.27-.14.41-.23l.11-.07s.08-.06.12-.09c.08-.07.17-.14.29-.18.14-.05.25-.14.36-.24.05-.05.1-.09.16-.13.14-.11.27-.25.4-.4l.09-.1c.09-.1.2-.19.3-.27.18-.14.33-.25.38-.44l.02-.08.07-.04c.2-.23.53-.3.86-.17.19.07.31.22.34.41.02.18-.05.36-.14.48-.06.08-.05.09-.03.11.05.08.08.15.1.22.03.15.06.3.09.45l.12.74c.02.1.03.19.06.28.05.19.1.38.15.57,0,.03.02.06.03.09.02.06.05.12.06.19.02.13.05.26.07.39.03.16.05.33.09.49.04.18.09.37.15.55.04.11.09.22.13.33.03.06.05.12.08.18.02.04.03.09.03.14,0,.04,0,.07,0,.1,0,.04,0,.08,0,.1.03.11.07.22.11.33.03.09.06.18.09.27.02.06.03.13.05.19,0,.04.02.08.03.12.02.09.05.18.07.27.04.13.07.26.11.39.02.07.02.14.02.21h0s.06.09.08.14c.03.13.06.26.09.39l.04.21s.02.06.03.09l.05.17c.02.09.05.18.07.27.01.08.02.15.02.23,0,.18.02.25.11.32l.08.06v.12c0,.06,0,.13-.03.19-.08.13-.23.1-.29.08-.03,0-.06-.02-.09-.03-.29.03-.56.08-.83.14-.2.05-.4.06-.59.08-.26.02-.5.04-.73.13-.12.04-.24.07-.37.1-.13.03-.25.06-.36.1-.25.1-.47.26-.69.44-.06.05-.12.09-.18.14,0,0-.02.02-.03.04-.02.02-.04.05-.06.07l-.15.17c-.07.08-.14.15-.21.23-.03.03-.06.07-.1.1-.07.06-.11.11-.12.16v.08s-.12.09-.12.09c-.02.02-.04.05-.05.06-.01.03-.02.06-.02.1-.02.09-.04.21-.13.3-.04.04-.05.08-.06.17v.06s-.02.09-.03.14c-.02.09-.03.18-.03.25,0,.2.03.38.08.54.04.13.06.19.13.22.09.05.17.11.24.17.03.03.07.06.1.08.03.03.07.06.11.09.04.03.11.09.13.1.11-.01.21.02.3.05.09.02.17.04.24.03.22-.02.43,0,.63.03.1.01.2.02.3.03.15,0,.3,0,.45,0,.12,0,.21,0,.31-.01.15,0,.29-.01.44-.01ZM34.54,28.23c.05.08.05.15.05.19-.02.11-.1.2-.23.25-.08.03-.14.07-.19.14.07-.04.14-.08.21-.12l.21-.11.09.06s.09.05.13.08c.04.02.07.04.11.06,0-.03,0-.06,0-.08.02-.13.13-.24.28-.3.03-.03.04-.05.06-.06,0,0,.01-.01.02-.02-.06-.02-.11-.06-.16-.12-.02,0-.05-.01-.07-.02l-.17-.05s-.09,0-.14,0c-.09,0-.15.04-.19.12ZM52.71,28.69h0s0,0,0,0ZM15.68,28.49s0,.03,0,.05c0,.05,0,.06.06.1,0,0,0,0,0,0-.03-.05-.04-.11-.06-.15ZM40.46,28.24c.14,0,.29.01.44.09h.06s-.04-.06-.06-.09c-.08-.15-.18-.27-.27-.39-.05-.01-.16,0-.2,0-.12.07-.18.1-.21.16-.04.07-.1.13-.17.17,0,0,0,0,.01,0,.03.01.04.02.06.03.01,0,.02.01.04.02.06,0,.12,0,.19,0,.03,0,.07,0,.1,0ZM35.08,28.13h0s0,0,0,0ZM44.18,27.55s0,0,0,0h0ZM48.91,27.2s0,0,0,0h0ZM49.61,26.34c.08.05.16.09.24.13.08.04.16.08.25.11.15.06.3.12.43.22.17.12.32.26.46.4l.09-.05c.1-.05.18-.1.27-.15,0,0,.02,0,.03-.01-.04-.03-.08-.07-.12-.12l-.05-.07c-.07.04-.16.05-.24.01-.09-.04-.18-.09-.26-.14l-.15-.1-.07.09-.13-.05c-.23-.09-.46-.21-.67-.35l-.06.08ZM16.06,26.42s-.02.02-.04.03c-.08.07-.13.12-.15.18-.02.06-.04.13-.07.19-.01.03-.03.06-.04.1l-.03.08s-.03.07-.04.11c.03-.06.07-.12.13-.18,0,0,0-.05.01-.08.01-.06.02-.11.04-.16.03-.07.07-.13.11-.17l.06-.07v-.02ZM16.58,25.82c-.08.06-.16.13-.23.2-.03.03-.06.08-.09.14,0,0,0,0,0,0,.03-.02.05-.05.07-.07.07-.08.14-.16.22-.23l.02-.02ZM47.5,25.13s.06.02.09.03h0s-.05-.02-.09-.03ZM47.15,24.63s.05.04.08.05c.03.02.07.04.1.04.01,0,.03,0,.04,0l-.19-.14-.03.04ZM48,24.66s.04.02.06.03c-.02-.02-.03-.03-.05-.05v.02ZM45.91,24.32c.05,0,.12.02.19.07l.15.11s.06.05.09.07v-.15l.22.1.02-.03c-.12-.08-.24-.16-.38-.23-.1-.06-.2-.12-.29-.18l-.24-.15.14-.09c-.21-.22-.43-.43-.65-.65l-.09-.09s-.06-.05-.09-.08l-.14-.13.04-.4h.03s-.13-.1-.13-.1c-.07-.01-.13-.04-.18-.07-.06-.03-.11-.07-.17-.11-.02-.01-.03-.02-.05-.03v.07s.44.43.44.43l-.24.24.11.18h.09c.19.1.32.24.44.37.03.03.05.05.08.07.08.06.2.17.23.33l.21.1-.1.13c.09.07.14.16.17.25,0,0,0,0,0,0,.03-.01.06-.02.1-.02ZM20.93,24.56s0,0,0,0c0,0,0,0,0,0ZM46.83,24.21s.03.02.05.03v-.03s-.05,0-.05,0ZM46.61,24.06s.09.05.13.08l.02-.1s-.06,0-.09-.02c0,0,0,0-.01,0l-.04.03ZM46.76,24.02s.02.04.03.04v-.19s-.03.15-.03.15ZM47.16,23.63c.14.11.28.21.42.33,0,0,.01,0,.02,0-.14-.11-.29-.21-.44-.32ZM46.78,23.83v.04s.01-.04.01-.04h-.01ZM44.1,22.69s.09.06.13.09h0s-.1-.06-.14-.09ZM43.43,22.34c.12.08.25.16.37.2.09.03.17.07.24.11-.22-.14-.42-.28-.6-.44,0,.01,0,.03,0,.04l-.02.08ZM45.3,21.93s.05,0,.07,0l.11.02.04.11s.09.06.15.08c0,0,0,0,.01,0l-1.19-1.18s.05.05.07.07l.35.42c.13.16.26.31.39.47ZM42.94,21.71s0,0,0,0h0s0,0,0,0ZM41.09,21.51s0,.01,0,.02h.01s-.01-.02-.02-.02ZM42.41,21.42l.1.09.06-.03c-.1-.1-.19-.21-.29-.3,0,.07-.03.12-.06.16.04.04.09.08.13.13,0,0,0,0,0,0l.07-.04ZM42.88,21.28h.01s-.01,0-.02,0c0,0,0,0,0,0ZM40.63,20.74s.02.03.04.04c.02.02.05.04.08.06l.08.05s.03-.01.04-.02c0-.03-.01-.05-.15-.13-.03,0-.06,0-.09,0ZM39.46,20s0,0,0,0c0,0,0,0,0,0ZM13.47,18.36s0,.04,0,.06c.01,0,.1.03.12.02l.03-.02s0,0,.01,0c-.06,0-.12-.02-.18-.05ZM18.26,15.26c-.05.14-.13.25-.22.35.1-.04.22-.07.35-.03.08-.05.16-.05.21-.03.03,0,.06.02.09.04.02-.05.05-.08.07-.11.05-.07.08-.16.07-.21,0-.03-.02-.08-.1-.11-.18-.07-.35-.04-.45.08l-.02.02ZM18.36,15.59s0,0,0,0h0ZM11.53,15.47s0,.01.01.02c0,0,0-.01,0-.02,0,0,0,0,0,0,0,0-.01,0-.02,0ZM18.21,15.3h0s0,0,0,0ZM18.28,15.2s0,0,0,0c0,0,0,0,0,0ZM11.28,14.68c.05.06.1.11.14.17.05.07.07.13.09.2,0,0,0,.01,0,.02.12-.06.23-.11.35-.16-.1-.12-.16-.17-.28-.18-.05,0-.1-.01-.13-.02l-.18-.03ZM18.03,14.97h0s0,0,0,0ZM11.58,14.36s.06,0,.09,0c-.14-.07-.31-.1-.48-.13l-.13-.02c-.08-.02-.19,0-.3,0-.04,0-.07,0-.11,0,.02.02.03.05.05.07.01.01.02.03.03.04l.06-.13.72.13s.04.01.07.02h0ZM32.37,13.85h0s0,0,0,0ZM32.5,13.84s0,0,0,0c0,0,0,0,0,0ZM32.88,13.61h0s0,0,0,0h0ZM31.84,13.15c.07.04.14.08.21.12.05.03.09.06.13.1-.01-.09.01-.18.07-.28l.02-.04-.07.08h-.14s-.2-.03-.2-.03l-.04-.06s-.03-.05-.04-.07c0-.02-.02-.03-.03-.04l-.05-.04s0,.01,0,.02c.11.1.13.19.13.25ZM31.15,12.04l.16.06s-.07-.05-.1-.08c-.04-.03-.07-.06-.11-.09,0,0,0,0,0,.01,0,0,0,.01.01.02.02.02.03.05.05.07ZM8.91,11.88s.02.03.03.04c0,0,0,.01.01.02.02-.05.05-.09.08-.12-.02.01-.05.02-.07.03-.02,0-.04.02-.05.02ZM29.37,10.13s.07.07.11.11h0s0-.06-.01-.09c-.02,0-.07,0-.1-.02ZM29.54,9.8s0,0,0,0c0,0,0,0,0,0ZM29.4,9.8s0,0,0,0c0,0,0,0,0,0ZM14.39,7.4s-.08.05-.12.08c-.02.02-.05.04-.07.06.03-.01.05-.02.08-.03l.09-.09s.01-.01.02-.02ZM26.77,6.45c.05.06.1.12.14.19.1.16.2.33.29.5.01.02.02.04.03.06l.1-.07s-.07-.07-.1-.11c-.03-.04-.06-.09-.09-.14l-.11-.19.07-.05-.23-.26-.09.07ZM15.4,6.66s-.04.02-.05.03c.02,0,.04-.02.05-.03,0,0,0,0,0,0ZM26.09,5.53l.19.33s.01.03.02.04l.09-.08c-.12-.14-.25-.29-.38-.43-.04-.04-.08-.07-.12-.11-.07-.05-.15-.12-.21-.2-.12-.16-.24-.32-.24-.53,0-.11-.05-.22-.14-.35-.03-.04-.06-.09-.09-.14-.06-.09-.11-.17-.18-.23-.03-.03-.06-.05-.1-.08l-.02.13-.12-.07c.05.08.12.16.21.25.06.06.12.14.18.21.07.1.08.19.07.24,0,.01,0,.02,0,.04.02.02.04.04.05.05.01.01.03.03.05.04.14.1.21.23.27.34.03.05.05.1.09.14.04.05.13.16.1.3-.01.08-.06.15-.14.21.02.02.04.04.06.06l.27-.13.03.06.09-.11ZM22.51,4.11s.03.03.05.04c0-.03.01-.05.02-.08l-.07.03ZM23.58,2.29s.03.02.04.03l.03.03s.06.04.09.06c.02.01.04.03.06.04-.1-.15-.2-.33-.24-.52,0,.04,0,.09,0,.16,0,.06.02.13.02.2ZM21.61,2.3s.04.1.04.15c.04-.02.08-.04.12-.05.03-.02.07-.03.11-.04l-.12-.02s-.1-.02-.14-.03ZM23.57,2.37s0,0,0,0c0,0,0,0,0,0ZM21.97,2.13s0,.04,0,.06l-.03.15c.06,0,.13,0,.19,0,.05,0,.08-.01.16-.09l.02-.02s-.03-.04-.05-.06c-.07-.05-.15-.1-.21-.17-.01.04-.03.09-.06.13ZM22.34,2.19s0,0,0,0h0ZM21.38.79s-.04,0-.06,0c-.07.02-.13.07-.17.14l-.02.04c-.06.11-.06.13-.04.15,0,.01.02.03.03.04.05.06.11.15.09.27,0,.04.01.08.08.16.02.02.03.04.05.06.09.12.18.2.29.25-.08-.06-.19-.18-.12-.39,0-.01.02-.05.02-.07,0-.21,0-.41,0-.62-.04-.02-.09-.04-.14-.04ZM21.87,1.62s0,0,.01,0c0,0,0,0,0,0,0,0,0-.01,0-.02,0,0,0,.01,0,.02ZM20.81,1.37s0,.03,0,.04c0,.04.02.09.04.14,0-.04-.01-.09,0-.14,0,0,0-.01-.01-.02,0,0-.01-.01-.02-.02ZM22.14.82s0,0,0,0c0,0,0,0,0,0ZM21.52.78h0s0,0,0,0ZM21.38.42c.13,0,.27.04.38.12.04.03.08.07.1.12.03-.08.08-.18.19-.2.02,0,.04,0,.06-.01-.13-.01-.25-.02-.38-.04l-.29-.03c-.18-.02-.31.03-.4.15.06-.04.12-.07.19-.09.05-.01.1-.02.15-.02ZM23.04.43s.02,0,.04.01c.03,0,.07.03.12.05-.03-.08-.04-.1-.16-.06Z"/>
        </g>
        <g>
          <path class="cls-2" d="M50.81,28.54c-.2-.21-.38-.43-.6-.63-.21-.2-.45-.36-.66-.53.05.02.12.06.2.09l.03-.02s-.05-.11-.09-.14c-.19-.15-.39-.3-.58-.44-.17-.12-.35-.24-.52-.37-.01,0-.02-.03-.04-.07.34.13.59.34.85.55-.1-.2-.21-.4-.4-.53-.05-.04-.1-.05-.06-.14.02-.05-.06-.14-.1-.2-.03-.05-.08-.1-.1-.17.25.28.38.65.77.82,0,.01-.02.02-.03.03-.03,0-.06,0-.11.01.11.14.2.28.32.39.11.1.17.25.37.28.14.02.24.22.44.16.14.13.29.3.47.42.18.12.39.19.61.29h-.34c-.22-.27-.61-.31-.92-.49-.01.01-.02.02-.03.03.05.07.09.14.15.2.39.39.81.75,1.31,1.02.14.08.28.14.42.22,0-.01.02-.03.03-.04-.03-.04-.07-.08-.1-.11,0,0,0-.01,0-.02.06.03.11.07.17.1.07.04.14.07.2.11.06.04.12.1.15.16.03.06-.06.13-.13.09-.29-.16-.58-.32-.87-.49-.09-.05-.18-.11-.27-.17-.02-.01-.06-.03-.08-.02-.13.09-.21-.01-.29-.07-.29-.21-.57-.43-.85-.65-.01,0-.02-.03-.02-.06.22.14.44.28.66.42,0,0,.01-.02.02-.03Z"/>
          <path class="cls-2" d="M52.55,29.8s-.09-.01-.14-.03c-.29-.16-.58-.32-.87-.49-.05-.03-.11-.06-.16-.1-.02-.02-.05-.03-.07-.05-.18.07-.33-.05-.39-.1l-.03-.02c-.22-.17-.45-.34-.67-.51l-.19-.15c-.07-.05-.1-.13-.09-.23l.02-.18c-.11-.09-.22-.18-.33-.26-.07-.05-.14-.1-.2-.15l-1.29-1.02.37.18-.08-.06-.28-.52.46.15s.09.03.13.05c0,0,0,0,0-.01,0-.01-.02-.02-.02-.03-.02-.02-.03-.04-.04-.06l-.03-.04s-.07-.1-.09-.16l-.3-.87.62.68c.09.09.16.2.23.3.14.2.26.37.47.47l.23.1-.15.18c.05.07.11.13.16.19.04.03.07.07.1.11.07.08.1.11.17.12.1.01.17.07.23.11.08.06.1.06.13.05l.1-.03.08.07s.09.08.13.13c.1.1.2.2.31.27.11.07.23.12.37.18.07.03.14.06.21.09l.76.36h-1.19c.21.16.41.29.61.4.05.02.09.05.14.07l.06-.1.22.12s.07.05.11.07c.02.01.04.02.06.03.05.03.11.05.15.09.06.05.15.12.2.22.05.1.03.21-.05.29-.06.05-.13.08-.2.08ZM52.59,29.44s0,0,0,0c0,0,0,0,0,0Z"/>
        </g>
        <g>
          <path class="cls-2" d="M28.77,8.97c.23-.04,1.29,1.07,1.33,1.41-.08-.11-.14-.19-.2-.26-.09-.09-.19-.18-.28-.27-.08-.08-.16-.16-.24-.24-.16-.18-.31-.36-.47-.54-.04-.04-.09-.07-.14-.11Z"/>
          <path class="cls-2" d="M30.38,11.05l-.5-.66c-.04-.06-.08-.1-.12-.15-.05-.06-.11-.11-.17-.16l-.14-.14c-.07-.07-.14-.14-.21-.21-.08-.09-.16-.18-.24-.27-.08-.09-.15-.17-.23-.26,0-.01-.03-.03-.06-.04l-.39-.3.41-.08c.1-.02.22.02.38.14.36.26,1.12,1.06,1.17,1.43l.09.69Z"/>
        </g>
        <g>
          <path class="cls-2" d="M50.02,28.13c-.31-.24-.61-.47-.92-.71.15-.02.85.53.94.68,0,0-.02.02-.02.03Z"/>
          <path class="cls-2" d="M50.05,28.39l-1.43-1.1.46-.05c.27-.03,1.04.62,1.12.77l.07.11-.23.26ZM50.01,28.12h0s0,0,0,0Z"/>
        </g>
        <g>
          <path class="cls-2" d="M32.54,12.59c-.3-.22-.67-.36-.93-.67.1,0,.82.52.93.67Z"/>
          <path class="cls-2" d="M33.27,13.34l-.84-.6c-.09-.07-.2-.13-.3-.19-.23-.14-.47-.28-.66-.51l-.24-.29.38-.02h0c.22,0,.99.61,1.08.75l.58.86Z"/>
        </g>
        <g>
          <path class="cls-2" d="M30.24,10.55c.19.21.37.42.56.63-.09.03-.58-.52-.56-.63Z"/>
          <path class="cls-2" d="M30.79,11.37c-.1,0-.19-.07-.3-.17-.11-.11-.48-.47-.43-.69l.08-.36.99,1.12-.28.08s-.04,0-.06,0Z"/>
        </g>
        <g>
          <path class="cls-2" d="M44.7,21.14c.1.15.19.31.29.46-.01,0-.02.01-.03.02-.1-.15-.2-.3-.31-.45.02-.01.04-.02.05-.03Z"/>
          <polygon class="cls-2" points="44.93 21.86 44.8 21.73 44.38 21.11 44.71 20.92 44.86 21.04 45.25 21.67 44.93 21.86"/>
        </g>
        <g>
          <path class="cls-2" d="M30.14,10.64c-.07-.06-.14-.11-.2-.17-.01-.01-.02-.04,0-.06,0-.01.05-.02.06-.02.06.07.12.15.18.23,0,0-.02.01-.03.02Z"/>
          <path class="cls-2" d="M30.15,10.85l-.18-.11c-.05-.04-.11-.09-.16-.13-.08-.07-.1-.2-.04-.29.06-.09.17-.11.19-.11h.09s.07.07.07.07c.05.06.1.12.14.18l.17.22-.29.18Z"/>
        </g>
        <g>
          <path class="cls-2" d="M27.94,10.2c-.05-.03-.11-.06-.16-.07-.04-.01-.09,0-.14,0,0,.04,0,.08.02.12.16.3.32.59.48.88,0,.02.01.04.02.06l-.04.02c-.08-.13-.16-.26-.23-.39-.01-.02,0-.05-.02-.06-.11-.17-.22-.33-.34-.5-.03-.05-.09-.07-.13-.12-.1-.11-.2-.23-.3-.35-.02-.02,0-.07,0-.11,0-.05.01-.1.02-.14-.02,0-.03,0-.05,0-.01.04-.03.09-.05.16-.07-.09-.12-.15-.17-.22-.09-.16-.18-.32-.27-.48-.03-.06-.05-.14-.08-.2-.06-.12-.12-.23-.19-.34-.07.04-.12.06-.16.09l-.02-.02s.04-.05.04-.08c.01-.05.01-.09.01-.14,0-.05,0-.09,0-.14.06,0,.14-.02.18.01.08.06.14.14.2.21.11.15.22.31.32.46.01.02.01.04.02.06,0,0-.02.02-.03.03-.08-.08-.17-.15-.25-.23-.01,0-.02.02-.04.03.09.18.14.39.27.54.17.19.4.32.61.48.02.01.06,0,.11-.02-.1-.08-.19-.14-.27-.21-.14-.11-.12-.19.04-.25.02,0,.04-.01.09-.03-.13-.19-.25-.37-.37-.55-.11-.18-.28-.32-.37-.52.02-.01.04-.03.05-.04.06.07.14.14.19.22.15.21.3.41.44.62.19.27.38.55.57.82.05.07.09.14.15.19.03.03.09.04.13.05,0-.04,0-.09,0-.13,0-.02-.02-.03-.03-.05-.02-.04-.04-.09-.05-.13.05,0,.09,0,.14,0-.08-.14-.17-.29-.25-.44.02-.01.04-.02.06-.03.2.36.47.69.56,1.11-.14-.22-.27-.27-.36-.15.04.06.08.12.12.17.16.18.32.35.48.53.05.06.09.12.14.18.06.07.11.07.16-.01-.11-.13-.21-.25-.32-.38,0,0,.01-.02.02-.03.03.02.08.04.1.07.18.23.36.46.54.68.08.09.17.17.24.27.2.26.46.46.69.7.11.11.24.19.36.28.06.05.13.08.08.19-.02.04.05.13.1.19.1.14.21.27.32.4-.01,0-.02.02-.04.03-.1-.12-.2-.25-.31-.37-.12-.13-.23-.26-.36-.37-.13-.11-.28-.2-.42-.29-.01,0-.02.01-.03.02,0,.04,0,.08.03.11.1.19.26.32.45.42.14.07.2.17.14.27-.05-.03-.1-.06-.16-.09,0,0-.02.01-.02.02.04.06.08.12.13.18.13.14.26.29.4.42.08.07.18.11.28.16,0,.02-.02.05-.03.07-.06-.01-.14,0-.19-.04-.21-.17-.41-.35-.6-.53-.03-.03-.02-.09-.03-.14,0-.03-.01-.06-.03-.08-.13-.19-.26-.37-.39-.56-.08-.12-.18-.22-.25-.35-.05-.09-.07-.2-.12-.29-.08-.15-.18-.3-.28-.45-.06-.09-.13-.16-.2-.26-.09.17.16.25.12.42-.11-.12-.22-.24-.32-.36l-.05.03c.07.15.17.29.3.4.03.03.06.06.08.08h0s-.03.06-.02.08c.12.19.2.4.37.54.18.15.23.34.32.52.02.03.07.04.1.06,0,.06-.02.12-.03.19-.07-.1-.12-.21-.2-.3-.11-.12-.24-.22-.36-.33-.04-.03-.07-.07-.11-.11-.33-.38-.66-.77-.99-1.15-.04-.05-.05-.11-.09-.16-.07-.11-.15-.21-.24-.34.06-.13-.18-.16-.18-.34.06.05.1.08.13.11.05.06.08.11.19.08.05-.01.13.06.2.1.03-.09,0-.16-.08-.21-.15-.11-.31-.22-.45-.33-.03-.02-.05-.07-.08-.1.07.03.13.05.2.08,0-.02.02-.03.03-.05-.05-.04-.1-.08-.15-.1-.07-.03-.09.02-.07.08ZM29.12,11.91s.04-.02.06-.04c-.02-.04-.03-.08-.05-.11-.09-.15-.19-.3-.28-.46-.06-.1-.17-.14-.3-.17.02.08.04.15.05.21.12.04.21.08.27.2.06.13.17.24.26.36Z"/>
          <path class="cls-2" d="M31.53,14.23l-.15-.03s-.03,0-.04,0c-.06,0-.15-.01-.22-.08-.19-.15-.38-.32-.61-.54-.07-.07-.08-.16-.08-.21v-.04s-.02-.02-.02-.03l-.07.48-.27-.41s-.04-.07-.06-.1c-.04-.06-.07-.12-.12-.17-.07-.08-.15-.14-.22-.21-.04-.04-.09-.07-.13-.11-.04-.04-.08-.08-.12-.13l-.1-.11c-.3-.35-.6-.69-.9-1.04-.04-.05-.06-.1-.08-.14,0-.01-.01-.03-.02-.04,0,0,0-.01-.01-.02l-.09.05-.16.08-.37-.64c-.1-.15-.2-.3-.3-.44,0,0-.02-.02-.03-.03-.03-.02-.06-.05-.08-.07-.05-.06-.1-.11-.15-.17h0s-.06-.08-.06-.08c-.03-.04-.06-.07-.09-.11-.01-.01-.02-.03-.03-.04l-.1-.14c-.05-.06-.09-.11-.12-.16-.1-.16-.19-.32-.27-.49-.02-.04-.04-.09-.05-.13,0-.02-.02-.05-.03-.07-.03-.06-.06-.12-.1-.18l-.11.06-.23-.21.09-.17s.01-.07.01-.1c0-.03,0-.06,0-.08v-.25s.19,0,.19,0c.01,0,.03,0,.04,0,.06,0,.16,0,.24.05.02.02.04.03.06.05l.21-.15.17.09.06.07c.05.05.1.11.14.17.15.21.3.42.44.63l.24.35h0s.4-.21.4-.21l.09.15c.05.09.11.18.16.27.17.27.34.55.42.89l.03.13.14.06c.06.03.1.06.14.11.08.1.17.21.25.32.1.12.19.25.29.37.03.04.07.08.11.11.05.05.1.1.14.15.12.16.27.29.43.44.09.08.17.16.25.24.06.06.13.11.2.16.05.03.1.07.14.11.14.11.19.22.16.34.01.02.03.04.04.05.09.11.16.21.24.3l.21.26-.28.23s.06.03.09.05c.03.02.07.03.1.05l.14.08-.14.36ZM30.1,12.25s.01.02.02.03h0s-.02-.02-.03-.03ZM28.69,10.98s.05.02.08.03l-.07-.07-.02.04ZM27.75,9.93s.05,0,.08.01c.01,0,.02,0,.03.01,0-.01-.01-.02-.02-.03l-.04-.06-.16.03.11.04ZM27.45,9.92s.02.02.02.03h.05s-.01-.02-.01-.02c-.02,0-.04,0-.06,0ZM26.97,9.09s.02.03.03.04c.03.03.06.06.09.09.02-.03.05-.06.08-.08-.03-.05-.07-.1-.1-.15l-.1.1Z"/>
        </g>
        <g>
          <path class="cls-2" d="M19.71,8.64c.02.06.03.1.06.16-.22.03-.44.06-.66.08-.29.02-.53-.12-.76-.27-.22-.15-.39-.33-.5-.57-.1-.23-.27-.43-.34-.66-.08-.25-.15-.52,0-.77.07-.1.15-.2.25-.27.21-.15.42-.3.7-.3.19,0,.39.01.57.06.3.08.59.19.88.3.13.05.26.1.36.18.08.06.13.16.16.25.06.16.11.32.15.48.03.13.04.27.02.4-.03.21-.09.43-.14.64-.03.13-.16.24-.31.26-.07.01-.15.02-.22.03-.07,0-.14,0-.23.01ZM19.29,8.72c.13-.01.24.02.26-.17,0-.06.12-.12.2-.16.14-.06.3-.1.45-.16.04-.02.09-.07.1-.12.04-.25.09-.5.09-.75,0-.19-.06-.37-.24-.5-.18-.13-.36-.23-.57-.31-.25-.11-.52-.18-.79-.22-.31-.04-.6.05-.85.23-.24.17-.34.39-.25.69.1.34.21.67.48.92.18.16.39.31.61.42.15.08.35.08.52.12Z"/>
          <path class="cls-2" d="M19.07,9.06c-.32,0-.58-.15-.82-.31-.27-.18-.45-.39-.57-.65-.04-.09-.09-.18-.14-.26-.08-.13-.16-.26-.21-.41-.1-.3-.17-.62.03-.93.08-.13.19-.24.3-.33.23-.17.49-.33.81-.33.17,0,.4.01.62.07.28.08.56.18.82.28l.07.03c.14.05.29.11.41.21.09.07.17.18.22.33.07.19.12.35.15.51.03.17.04.33.02.47-.02.16-.06.32-.1.48l-.04.17c-.05.2-.24.37-.46.4-.07.01-.15.02-.22.03l.05.14-.43.05c-.16.02-.31.04-.47.05-.02,0-.04,0-.06,0ZM18.65,6.51c-.21,0-.42.07-.61.21-.19.13-.24.28-.18.48.1.33.2.63.42.83.17.16.37.29.57.4.08.04.19.06.3.07.05,0,.1.01.15.02.01,0,.03,0,.04,0,0,0,.01,0,.02,0,.02-.13.12-.23.31-.31.08-.04.17-.06.25-.09.07-.02.13-.04.2-.07v-.1c.04-.21.07-.4.07-.6,0-.15-.05-.26-.17-.35-.15-.11-.32-.2-.53-.29-.25-.11-.5-.17-.74-.2-.04,0-.07,0-.11,0Z"/>
        </g>
        <g>
          <path class="cls-2" d="M31.23,14.13c.23.15.39.4.69.47-.03-.21.18-.16.28-.26.03.04.05.07.09.13.05-.07.09-.14.14-.19.04-.04.09-.06.13-.09.07-.04.08-.08.01-.14-.08-.07-.15-.16-.22-.23.01-.01.02-.03.03-.04.03,0,.07,0,.09.02.17.1.34.2.52.29.1.05.09.09.04.19-.09.16-.29.16-.41.28-.03.03-.12,0-.17.02-.39.15-.78.3-1.17.47-.24.1-.47.23-.71.35-.08.04-.15.1-.23.15-.11.06-.24,0-.28-.12-.02-.07-.06-.14-.12-.19-.09-.09-.2-.15-.3-.24-.06-.05-.1-.12-.15-.19,0-.01,0-.03-.02-.04-.2-.22-.39-.44-.59-.66-.04-.04-.06-.1-.09-.14-.18-.26-.36-.52-.55-.78-.15-.19-.32-.37-.47-.56-.09-.11-.16-.23-.24-.34-.09-.13-.17-.27-.25-.41,0-.01,0-.03,0-.08.06.03.13.04.14.07.07.21.26.35.39.52.19.24.37.48.55.72.12.16.22.34.35.5.09.12.21.21.31.32.1.11.17.24.27.36.22.25.44.5.67.74.11.12.24.15.4.1.1-.03.22,0,.33-.01.03,0,.06,0,.08,0,.2-.07.4-.15.59-.22.09-.03.18-.07.27-.11.08-.04.11-.07.02-.14-.15-.12-.29-.25-.43-.38-.03-.03-.03-.07-.05-.11.01,0,.02-.02.04-.02Z"/>
          <path class="cls-2" d="M30.27,15.75s-.09,0-.13-.02c-.11-.04-.2-.13-.24-.24-.02-.05-.04-.09-.07-.12-.04-.04-.09-.08-.14-.11-.05-.04-.1-.08-.15-.12-.06-.05-.1-.11-.14-.16l-.06-.1-.19-.21c-.13-.14-.26-.29-.39-.43-.03-.04-.06-.08-.08-.12,0-.02-.02-.03-.03-.04l-.15-.21c-.13-.19-.26-.38-.4-.56-.08-.11-.17-.21-.26-.31-.07-.08-.14-.16-.21-.25-.08-.1-.15-.21-.22-.31l-.03-.04c-.09-.14-.17-.27-.26-.41-.03-.05-.03-.1-.03-.13l-.03-.32.29.1s.03.01.04.02c.06.02.15.05.19.16.04.11.12.19.21.29.05.06.1.11.15.17l.12.16c.15.19.29.38.43.57.06.08.11.15.16.23.06.09.12.18.19.27.04.06.1.11.15.16.05.05.11.1.15.16.05.06.1.12.14.19.04.06.08.11.13.17.22.25.44.5.66.74.05.05.1.08.21.05.1-.03.2-.02.28-.02.03,0,.06,0,.1,0l.05.16s0,0,0,0v-.16c.17-.07.36-.14.56-.21.03-.01.07-.03.1-.04-.09-.08-.18-.16-.26-.23l-.05-.05c-.06-.05-.07-.11-.09-.15l-.06-.15.23-.17.14.04c.09.06.17.13.24.2.08.07.15.14.23.18.07-.08.16-.11.21-.13.02,0,.05-.02.06-.02l.16-.14.07.1h0s.04-.04.06-.06c-.03-.03-.05-.06-.08-.09l-.17-.19.21-.26.12.03s.09.02.14.04c.07.04.14.08.21.12.1.06.2.12.31.17.06.03.14.08.16.18.03.11-.02.21-.05.26-.08.15-.22.21-.32.26-.05.02-.09.04-.12.07-.08.07-.17.06-.22.06l-.1.03c-.36.14-.71.28-1.07.43-.2.09-.39.19-.58.29l-.11.06s-.07.04-.11.07c-.04.03-.07.05-.11.07-.06.03-.12.05-.19.05ZM30.25,15.33s0,.02,0,.02c.04,0,.06-.02.09-.03-.03,0-.07,0-.1,0ZM29.34,14.85s0,0,0,0h0ZM32.81,14.19s-.02.05-.04.08c.04-.02.07-.03.09-.05-.02,0-.03-.02-.05-.03Z"/>
        </g>
        <g>
          <path class="cls-2" d="M24.83,6.28c-.08-.04-.14-.08-.2-.11,0,0,.02-.01.03-.02-.03-.06-.05-.13-.1-.18-.1-.11-.22-.21-.3-.33-.06-.08-.06-.19-.1-.29-.07-.17-.15-.33-.23-.5-.05-.12-.21-.21-.34-.17-.03,0-.06.04-.06.07-.01.19.02.37.14.53.05.07.08.16.12.24-.02,0-.03.02-.05.02-.13-.26-.29-.51-.4-.78-.09-.24.01-.35.29-.34.03,0,.06-.01.1-.02-.01-.03-.02-.07-.03-.09-.04-.07-.1-.13-.14-.2-.02-.03-.02-.11,0-.12.04-.02.11-.03.14-.01.14.11.31.19.41.35.12.2.26.38.38.57.02.03.01.09.02.13-.05-.01-.1-.01-.15-.03-.05-.02-.1-.06-.17-.11.07.55.49.91.66,1.39Z"/>
          <path class="cls-2" d="M25.17,6.68l-.93-.52.17-.09s-.07-.07-.11-.11c-.07-.07-.14-.14-.2-.22-.03-.05-.05-.09-.07-.14l-.38.18-.08-.16c-.04-.08-.08-.15-.12-.23-.1-.18-.2-.37-.28-.57-.07-.17-.06-.32.02-.43.06-.09.15-.13.23-.15-.01-.02-.02-.03-.03-.05-.04-.07-.05-.19-.03-.26l.03-.08.08-.04s.21-.09.33.01c.04.03.08.06.12.09.11.08.24.16.33.31.07.11.14.22.22.33.05.08.11.16.16.24.04.07.05.14.05.19l.03.26-.24-.03c.06.14.15.27.23.4.12.19.24.38.32.6l.16.46ZM23.71,4.88c0,.11.04.21.1.29.04.06.08.13.11.19l.1.21s0-.04-.01-.05c0-.03-.02-.06-.03-.09-.04-.09-.08-.18-.12-.27-.04-.08-.07-.15-.11-.23,0-.02-.03-.03-.04-.05ZM23.71,4.76h0s0,0,0,0ZM23.88,4.54s.05.03.07.04v-.07s-.07.02-.07.02ZM23.94,4.51l.06.04s-.05-.08-.07-.12c0,0,0-.01-.01-.02l.03.1Z"/>
        </g>
        <g>
          <path class="cls-2" d="M30.85,14.41c-.09-.31-.31-.55-.41-.84.04.03.08.06.11.1.13.2.26.41.39.62.05.08.1.16.14.24.04.08,0,.12-.1.1-.05,0-.09,0-.14,0-.05-.12-.18-.18-.3-.17-.15.01-.2-.07-.27-.15-.19-.19-.38-.39-.56-.6-.06-.07-.1-.15-.15-.23-.12-.18-.25-.35-.37-.53-.06-.09-.11-.19-.18-.28-.09-.13-.19-.25-.28-.38-.05-.07-.07-.15-.11-.22-.13-.22-.25-.44-.38-.66,0,0,0-.02.02-.05.53.82,1.05,1.64,1.7,2.38.01,0,.03-.01.04-.02-.04-.06-.07-.11-.11-.17-.04-.06-.07-.12-.11-.2.14.1.27.18.39.27,0,.03-.02.09,0,.13.13.3.26.6.68.65Z"/>
          <path class="cls-2" d="M31.02,14.81s-.04,0-.06,0c-.02,0-.04,0-.06,0h-.18s-.05-.12-.05-.12c-.01-.04-.07-.06-.11-.05-.22.02-.33-.1-.39-.18-.22-.22-.41-.42-.59-.63-.05-.06-.09-.12-.12-.17-.01-.03-.03-.05-.05-.07l-.14-.21c-.08-.11-.15-.22-.23-.33-.03-.05-.06-.09-.09-.14-.03-.05-.06-.09-.09-.14-.04-.06-.09-.12-.13-.17-.05-.07-.11-.14-.15-.21-.03-.05-.06-.1-.08-.16-.01-.03-.02-.05-.04-.08-.07-.13-.15-.26-.22-.38l-.16-.28s-.06-.14.03-.25l.16-.21.19.29c.36.56.72,1.13,1.13,1.67l.59.41-.18-.51.57.53c.06.05.1.08.14.14.12.19.24.38.36.58l.06.09c.05.07.09.14.12.22.06.14.01.23-.02.27-.03.04-.09.1-.21.1Z"/>
        </g>
        <g>
          <path class="cls-2" d="M25.79,6.88c-.06-.08-.13-.16-.19-.24-.02,0-.03.01-.05.02.03.19.07.38.1.57-.01,0-.02,0-.03.01-.05-.12-.11-.24-.16-.36-.03-.07-.07-.14-.1-.22-.02-.05-.05-.13-.03-.16.07-.1.02-.17,0-.26-.03-.08-.03-.16-.05-.25.02,0,.03,0,.05,0,.05.12.09.24.14.36,0,.02.02.05.04.05.26.06.21.31.34.45-.01,0-.03.02-.04.03Z"/>
          <path class="cls-2" d="M25.55,7.47l-.1-.15-.2-.43c-.03-.05-.05-.11-.07-.16-.03-.09-.08-.22,0-.34h0s-.01-.02-.02-.04l-.02-.05c-.02-.06-.03-.13-.04-.2l-.05-.26.39-.05.09.24c.03.07.05.15.08.22.2.08.26.25.3.36.02.05.03.1.06.12l.16.15-.3.23.05.26-.31.11ZM25.52,6.22s0,0,0,0c0,0,0,0,0,0Z"/>
        </g>
        <g>
          <path class="cls-2" d="M24.91,6.67c-.12-.08-.24-.16-.36-.24-.03.03-.07.09-.09.08-.04,0-.09-.05-.12-.09-.08-.09-.15-.19-.2-.31.04.04.07.09.11.13.03-.05.04-.11.07-.12.04,0,.09.02.13.04.03.01.06.05.09.06.24.06.26.29.36.45Z"/>
          <path class="cls-2" d="M25.56,7.33l-.99-.67s-.08.04-.13.03c-.09-.01-.17-.06-.25-.16-.1-.12-.17-.23-.22-.35l-.57-1.23.85.99s.02,0,.03-.01c.09-.02.18.01.23.04.06.02.08.05.1.06.25.06.33.26.4.41.02.04.04.09.06.12l.49.77Z"/>
        </g>
        <g>
          <path class="cls-2" d="M28.19,11.59c-.09-.09-.18-.19-.27-.27-.07-.07-.12-.16-.26-.15-.05,0-.11-.09-.16-.15-.04-.04-.08-.09-.11-.14-.01-.03,0-.07,0-.1.04,0,.09,0,.12.02.1.08.19.17.28.26.13.14.25.29.37.43.02.02.03.06.05.08-.01,0-.02.02-.03.02Z"/>
          <path class="cls-2" d="M28.2,11.81l-.14-.1-.07-.08c-.06-.07-.13-.13-.19-.19l-.04-.04c-.06-.06-.06-.06-.08-.06-.13,0-.21-.1-.26-.17-.01-.01-.02-.03-.03-.04-.05-.05-.1-.11-.14-.18-.04-.08-.02-.15-.01-.2l.02-.2.2.02c.06,0,.14,0,.21.06.12.1.21.19.29.27.11.12.21.24.32.36l.06.07s.05.07.06.1l.07.14-.11.12-.13.1Z"/>
        </g>
        <g>
          <path class="cls-2" d="M31.49,14.03c.11.04.2.07.29.11.01-.01.02-.02.03-.04-.13-.19-.26-.37-.39-.56,0,0,0,0,.01-.01.06.06.13.12.18.18.09.12.17.24.26.36.04.05.1.09.14.14.02.03.04.07.03.1,0,.02-.04.05-.06.05-.1.01-.44-.23-.49-.34Z"/>
          <path class="cls-2" d="M31.98,14.56c-.21,0-.59-.29-.66-.46l-.15-.38.2.07-.18-.26.23-.25.2.18c.05.05.1.1.14.15.05.07.1.13.14.2.04.06.07.11.11.16.01.02.03.03.05.05.03.03.06.06.08.09.05.06.08.15.08.23,0,.12-.13.22-.23.23,0,0-.01,0-.02,0Z"/>
        </g>
        <g>
          <path class="cls-2" d="M27.87,11.82s.04.03.06.05c.16.19.31.37.46.56.02.03.03.07.04.11-.05-.01-.12,0-.14-.04-.11-.14-.2-.28-.3-.43-.05-.08-.1-.15-.15-.23.01,0,.02-.02.03-.03Z"/>
          <path class="cls-2" d="M28.7,12.77l-.32-.05c-.09,0-.18-.02-.25-.1-.09-.11-.17-.23-.25-.35l-.3-.46.25-.2.15.07-.12.14.13-.14s.05.03.07.07c.17.2.32.38.46.56.04.05.06.11.06.14l.11.31Z"/>
        </g>
        <g>
          <path class="cls-2" d="M24.49,6.59s.09.01.11.04c.16.23.32.46.48.68,0,0,0,.02-.01.04-.2-.25-.39-.49-.58-.73,0-.01,0-.02,0-.03Z"/>
          <path class="cls-2" d="M25.14,7.72l-.22-.24-.64-.8.07-.29.2.03c.06.01.15.03.2.1.14.2.28.4.42.6l.11.17-.14.43ZM24.92,7.42h0s0,0,0,0Z"/>
        </g>
        <g>
          <path class="cls-2" d="M26.01,7.11c.16.08.38.35.39.51-.14-.16-.28-.32-.42-.49.01,0,.02-.02.04-.03Z"/>
          <path class="cls-2" d="M26.6,8.15l-.9-1.04.29-.22.11.05c.21.11.48.43.49.67l.02.53Z"/>
        </g>
        <g>
          <path class="cls-2" d="M25.44,7.53c.15.23.29.43.42.64-.13-.03-.43-.49-.42-.64Z"/>
          <path class="cls-2" d="M26.27,8.44l-.44-.09c-.24-.05-.58-.61-.58-.82v-.6s1.02,1.51,1.02,1.51Z"/>
        </g>
        <g>
          <path class="cls-2" d="M41.43,21.83c.17.12.34.23.51.35-.01.01-.02.03-.03.04-.2-.08-.35-.21-.51-.35.01-.01.02-.03.03-.04Z"/>
          <path class="cls-2" d="M41.98,22.45l-.13-.05c-.22-.08-.38-.23-.54-.37l-.13-.11.11-.19.11-.14.15.09.67.46-.23.32Z"/>
        </g>
        <g>
          <path class="cls-2" d="M27.89,8.97c-.12-.17-.24-.34-.38-.54.14.04.4.39.41.51-.01,0-.02.02-.04.02Z"/>
          <path class="cls-2" d="M27.88,9.2l-.14-.12-.67-.96.5.13c.22.06.53.49.55.67v.11s-.23.16-.23.16Z"/>
        </g>
        <g>
          <path class="cls-2" d="M42.47,22.59c-.16-.1-.33-.21-.49-.31.01-.02.02-.03.03-.05.16.1.33.2.49.3-.01.02-.02.04-.04.05Z"/>
          <polygon class="cls-2" points="42.52 22.84 41.72 22.33 41.96 21.98 42.76 22.47 42.52 22.84"/>
        </g>
        <g>
          <path class="cls-2" d="M29.85,13.23l-.2-.32s.04-.02.06-.03c.07.11.13.22.2.32-.02.01-.03.02-.05.03Z"/>
          <polygon class="cls-2" points="29.84 13.45 29.69 13.33 29.39 12.84 29.77 12.62 30.16 13.25 29.84 13.45"/>
        </g>
        <g>
          <path class="cls-2" d="M26.61,9.36c-.07-.13-.15-.26-.22-.39.01,0,.02-.01.03-.02.08.13.15.25.23.38-.01,0-.03.02-.04.02Z"/>
          <polygon class="cls-2" points="26.58 9.59 26.45 9.45 26.14 8.9 26.49 8.71 26.91 9.41 26.58 9.59"/>
        </g>
        <g>
          <path class="cls-2" d="M42.61,22.61c.1.07.19.13.29.2,0,.01-.02.03-.03.04-.1-.06-.2-.13-.3-.19.01-.02.03-.03.04-.05Z"/>
          <polygon class="cls-2" points="42.92 23.1 42.3 22.71 42.53 22.41 42.71 22.45 43.16 22.76 42.92 23.1"/>
        </g>
        <g>
          <path class="cls-2" d="M29.46,11.9s.05-.05.09-.1c.05.08.09.16.13.23-.01,0-.02.02-.03.02-.06-.05-.12-.1-.19-.15,0,0,0,0,0,0Z"/>
          <polygon class="cls-2" points="28.86 12.8 29.37 11.73 29.59 11.49 29.92 12.08 29.68 12.26 29.48 12.15 28.86 12.8"/>
        </g>
        <g>
          <path class="cls-2" d="M25,6.81c.05.09.1.18.15.27-.01,0-.02.01-.04.02-.05-.09-.1-.18-.15-.27l.04-.02Z"/>
          <polygon class="cls-2" points="25.08 7.32 24.95 7.19 24.7 6.75 25.08 6.55 25.41 7.15 25.08 7.32"/>
        </g>
        <g>
          <path class="cls-2" d="M19.03,7.57c-.06.03-.11.06-.17.09-.03-.06-.07-.12-.1-.18.14-.09.2-.03.27.08Z"/>
          <path class="cls-2" d="M18.79,7.92l-.28-.49.14-.1c.1-.07.2-.09.29-.07.14.03.21.16.24.22l.09.17-.5.27Z"/>
        </g>
      </g>
    </g>
  </g>
</svg>